<svg width="133.21" height="14" viewBox="0 0 656 68" fill="none" xmlns="http://www.w3.org/2000/svg">
<path d="M0 7.5985V14.8732H10.5079H21.0158V40.7388V66.6045H29.9071H38.7985V40.7388V14.8732H49.3064H59.8143V7.5985V0.323784H29.9071H0V7.5985Z" fill="#FBFAFC"/>
<path d="M67.8973 7.43684V14.8732H85.5183C99.4211 14.8732 103.786 15.3582 105.726 17.4598C108.474 20.0463 109.121 27.321 107.019 30.7159C104.918 33.9491 95.5412 35.889 81.3151 35.889H67.8973V51.2468V66.6045H76.7887H85.68V57.7132V48.8219H91.3381C96.3495 48.8219 97.6428 49.7918 102.816 57.7132L108.797 66.6045H117.365C122.215 66.6045 126.095 66.2812 126.095 65.6345C126.095 65.1495 123.185 60.4614 119.629 55.2883L113.162 45.7503L117.85 42.5171C131.106 33.1408 128.197 12.2866 112.354 3.88031C108.959 2.10205 101.523 1.13209 87.7815 0.64711L67.8973 0.000465393V7.43684Z" fill="#FBFAFC"/>
<path d="M139.028 7.59834V14.873H164.893H190.759V7.59834V0.323624H164.893H139.028V7.59834Z" fill="#FBFAFC"/>
<path d="M202.075 4.20363C202.075 6.79019 209.835 17.4598 226.486 37.344L250.897 66.6045H258.01C264.638 66.6045 265.123 66.2812 265.123 62.4013C265.123 59.8148 262.536 55.1266 258.98 50.6001C255.585 46.5586 244.915 33.4641 235.377 21.6629L217.918 0.323784H209.997C202.722 0.323784 202.075 0.647102 202.075 4.20363Z" fill="#FBFAFC"/>
<path d="M247.34 5.81909C247.34 10.1839 249.28 13.5788 255.585 21.1768C260.111 26.6733 264.153 31.0381 264.476 31.0381C264.8 31.0381 265.123 24.0867 265.123 15.6804V0.322638H256.232H247.34V5.81909Z" fill="#FBFAFC"/>
<path d="M279.672 7.5985V14.8732H297.455C317.662 14.8732 323.321 16.6515 327.362 24.5728C334.96 39.1222 325.26 52.0551 306.831 52.0551H297.455V43.1638V34.2724H288.564H279.672V50.4385V66.6045H297.94C317.662 66.6045 327.847 64.5029 336.253 58.5215C351.773 47.5286 351.288 18.2681 335.122 7.76015C326.715 2.2637 317.501 0.485443 297.132 0.323784H279.672V7.5985Z" fill="#FBFAFC"/>
<path d="M358.886 7.59834V14.873H383.943H409V7.59834V0.323624H383.943H358.886V7.59834Z" fill="#FBFAFC"/>
<path d="M420.317 33.4641V66.6045H445.374H470.431V59.3298V52.0551H454.265H438.099V26.1894V0.323784H429.208H420.317V33.4641Z" fill="#FBFAFC"/>
<path d="M489.022 3.39462C473.826 12.6093 469.785 29.9069 479.323 44.2947C486.274 54.8026 499.692 59.0057 511.978 54.8026L518.929 52.3777L527.012 60.299C535.58 68.5437 538.005 69.5137 541.239 66.2805C544.31 63.2089 543.663 62.0773 534.772 52.701C527.174 44.618 526.689 43.648 528.306 39.7682C530.569 35.08 530.892 20.3689 528.791 19.0757C526.366 17.4591 523.456 22.6322 522.971 29.2603C521.678 45.4263 505.512 53.8326 491.77 45.5879C477.868 37.0199 478.999 17.7824 494.034 9.86103C500.985 6.14284 501.308 5.98118 508.745 8.7294C514.241 10.6693 516.989 10.9926 518.444 9.69937C521.516 7.27446 521.031 6.14284 515.858 3.0713C509.391 -0.646889 495.327 -0.646889 489.022 3.39462Z" fill="#A86FE1"/>
<path d="M526.689 2.42537C528.144 4.04198 526.527 6.62854 519.738 13.2566L510.846 21.9863L507.128 18.4297C501.147 12.7716 499.53 13.9032 499.53 23.7645C499.53 32.1709 499.368 32.6558 496.459 30.7159C493.872 29.0993 492.74 29.261 489.992 31.6859C485.951 35.2424 487.082 37.829 492.094 36.5357C494.519 36.0507 496.62 36.859 498.56 38.9606C503.248 44.1337 504.38 43.1638 504.38 33.4641C504.38 24.4112 505.35 22.9562 508.906 26.5128C510.523 28.1294 513.11 26.1894 521.354 18.1064C530.246 9.37677 532.024 8.24514 534.125 10.0234C536.389 11.8017 536.712 11.3167 536.712 6.14356C536.712 0.485451 536.55 0.323792 530.892 0.323792C526.204 0.323792 525.396 0.808773 526.689 2.42537Z" fill="#A86FE1"/>
<path d="M547.22 2.26402C547.543 3.39563 551.261 14.8735 555.465 27.8063L563.063 51.2471L567.912 36.8593L572.762 22.4715L569.206 11.317L565.649 0.324089H556.111C549.16 0.324089 546.735 0.809071 547.22 2.26402Z" fill="#FBFAFC"/>
<path d="M583.917 29.746C578.582 46.0736 573.894 60.9464 573.247 62.8863C572.116 66.4428 572.439 66.6045 579.875 66.6045H587.797L594.101 47.2053C597.496 36.5357 600.891 27.806 601.376 27.806C602.023 27.806 603.801 32.1709 605.418 37.6673L608.489 47.3669L612.854 34.7574L617.38 22.1479L614.147 11.155L610.914 0.323784H602.184H593.455L583.917 29.746Z" fill="#FBFAFC"/>
<path d="M628.212 32.3325C622.392 49.7918 617.542 64.6646 617.542 65.4729C617.542 66.1195 621.422 66.6045 626.11 66.6045H634.517L645.186 33.4641L655.856 0.323784H647.288H638.881L628.212 32.3325Z" fill="#FBFAFC"/>
<path d="M139.028 32.6557V39.1221H164.893H190.759V32.6557V26.1892H164.893H139.028V32.6557Z" fill="#FBFAFC"/>
<path d="M358.886 48.0136V66.6045H367.777H376.668V55.2883V43.9721H392.834H409V36.6973V29.4226H383.943H358.886V48.0136Z" fill="#FBFAFC"/>
<path d="M202.075 50.4385V66.6045H210.967H219.858V60.7847C219.858 56.2582 218.08 52.7017 211.613 44.6187C207.087 38.9606 203.045 34.2724 202.722 34.2724C202.399 34.2724 202.075 41.5472 202.075 50.4385Z" fill="#FBFAFC"/>
<path d="M139.028 59.3298V66.6045H164.893H190.759V59.3298V52.0551H164.893H139.028V59.3298Z" fill="#FBFAFC"/>
</svg>
