<svg width="69" height="68" viewBox="0 0 69 68" fill="none" xmlns="http://www.w3.org/2000/svg">
<path d="M15.0222 3.39462C-0.173817 12.6093 -4.21532 29.9069 5.32263 44.2947C12.274 54.8026 25.6918 59.0057 37.978 54.8026L44.9294 52.3777L53.0124 60.299C61.5804 68.5437 64.0053 69.5137 67.2385 66.2805C70.3101 63.2089 69.6634 62.0773 60.7721 52.701C53.1741 44.618 52.6891 43.648 54.3057 39.7682C56.5689 35.08 56.8923 20.3689 54.7907 19.0757C52.3658 17.4591 49.4559 22.6322 48.9709 29.2603C47.6776 45.4263 31.5116 53.8326 17.7705 45.5879C3.86769 37.0199 4.99931 17.7824 20.0337 9.86103C26.9851 6.14284 27.3084 5.98118 34.7448 8.72941C40.2412 10.6693 42.9895 10.9926 44.4444 9.69937C47.516 7.27446 47.031 6.14284 41.8578 3.0713C35.3914 -0.64689 21.327 -0.64689 15.0222 3.39462Z" fill="#A86FE1"/>
<path d="M52.6891 2.42537C54.144 4.04198 52.5274 6.62854 45.7377 13.2566L36.8464 21.9863L33.1282 18.4297C27.1468 12.7716 25.5302 13.9033 25.5302 23.7645C25.5302 32.1709 25.3685 32.6558 22.4586 30.7159C19.872 29.0993 18.7404 29.261 15.9922 31.6859C11.9507 35.2424 13.0823 37.829 18.0938 36.5357C20.5187 36.0507 22.6203 36.859 24.5602 38.9606C29.2483 44.1337 30.38 43.1638 30.38 33.4641C30.38 24.4112 31.3499 22.9562 34.9064 26.5128C36.523 28.1294 39.1096 26.1894 47.3543 18.1064C56.2456 9.37676 58.0239 8.24514 60.1254 10.0234C62.3887 11.8017 62.712 11.3167 62.712 6.14356C62.712 0.485451 62.5504 0.323791 56.8922 0.323791C52.2041 0.323791 51.3958 0.808771 52.6891 2.42537Z" fill="#A86FE1"/>
</svg>
