<svg width="20" height="19" viewBox="0 0 20 19" fill="none" xmlns="http://www.w3.org/2000/svg">
<path d="M19.3023 4.65115H13.7209C13.3395 4.65115 13.0232 4.33487 13.0232 3.95347C13.0232 3.57208 13.3395 3.2558 13.7209 3.2558H19.3023C19.6837 3.2558 19.9999 3.57208 19.9999 3.95347C19.9999 4.33487 19.6837 4.65115 19.3023 4.65115Z" fill="current"/>
<path d="M4.4186 4.65115H0.697674C0.316279 4.65115 0 4.33487 0 3.95347C0 3.57208 0.316279 3.2558 0.697674 3.2558H4.4186C4.8 3.2558 5.11628 3.57208 5.11628 3.95347C5.11628 4.33487 4.8 4.65115 4.4186 4.65115Z" fill="current"/>
<path d="M8.13952 7.90698C5.96278 7.90698 4.18604 6.13023 4.18604 3.95349C4.18604 1.77674 5.96278 0 8.13952 0C10.3163 0 12.093 1.77674 12.093 3.95349C12.093 6.13023 10.3163 7.90698 8.13952 7.90698ZM8.13952 1.39535C6.72557 1.39535 5.58138 2.53953 5.58138 3.95349C5.58138 5.36744 6.72557 6.51163 8.13952 6.51163C9.55348 6.51163 10.6977 5.36744 10.6977 3.95349C10.6977 2.53953 9.55348 1.39535 8.13952 1.39535Z" fill="current"/>
<path d="M19.3024 14.8838H15.5815C15.2001 14.8838 14.8838 14.5675 14.8838 14.1861C14.8838 13.8047 15.2001 13.4884 15.5815 13.4884H19.3024C19.6838 13.4884 20.0001 13.8047 20.0001 14.1861C20.0001 14.5675 19.6838 14.8838 19.3024 14.8838Z" fill="current"/>
<path d="M6.27907 14.8838H0.697674C0.316279 14.8838 0 14.5675 0 14.1861C0 13.8047 0.316279 13.4884 0.697674 13.4884H6.27907C6.66047 13.4884 6.97674 13.8047 6.97674 14.1861C6.97674 14.5675 6.66047 14.8838 6.27907 14.8838Z" fill="current"/>
<path d="M11.8605 18.1395C9.68373 18.1395 7.90698 16.3628 7.90698 14.186C7.90698 12.0093 9.68373 10.2325 11.8605 10.2325C14.0372 10.2325 15.814 12.0093 15.814 14.186C15.814 16.3628 14.0372 18.1395 11.8605 18.1395ZM11.8605 11.6279C10.4465 11.6279 9.30233 12.7721 9.30233 14.186C9.30233 15.6 10.4465 16.7442 11.8605 16.7442C13.2744 16.7442 14.4186 15.6 14.4186 14.186C14.4186 12.7721 13.2744 11.6279 11.8605 11.6279Z" fill="current"/>
</svg>
