<svg version="1.1" id="Layer_1" xmlns="http://www.w3.org/2000/svg" xmlns:xlink="http://www.w3.org/1999/xlink" x="0px" y="0px"
	 width="100%" viewBox="0 0 512 512" enable-background="new 0 0 512 512" xml:space="preserve">
<path fill="#FFFFFF" opacity="1.000000" stroke="none" 
	d="
M284.000000,513.000000 
	C189.356308,513.000000 95.212616,513.000000 1.034460,513.000000 
	C1.034460,342.397949 1.034460,171.795883 1.034460,1.096914 
	C171.560379,1.096914 342.120819,1.096914 512.840637,1.096914 
	C512.840637,171.666550 512.840637,342.333252 512.840637,513.000000 
	C436.795868,513.000000 360.647919,513.000000 284.000000,513.000000 
M124.286499,271.926392 
	C124.385628,277.630646 124.484764,283.334900 124.345490,289.803253 
	C124.427879,290.853027 124.510269,291.902771 124.296783,293.858276 
	C124.403809,298.929230 124.510834,304.000214 124.363144,309.956146 
	C124.474525,314.298492 124.585907,318.640869 124.376671,323.879395 
	C124.531151,330.269196 124.685638,336.658966 124.763802,343.954468 
	C124.812912,347.297211 124.862022,350.639984 124.782921,354.915466 
	C124.819122,362.601440 124.855324,370.287384 124.758919,378.908386 
	C124.742317,384.178833 124.724289,389.449249 124.709450,394.719696 
	C124.688644,402.113312 128.044113,407.213318 135.816025,410.064362 
	C142.220718,410.221558 148.625397,410.378754 155.946457,410.723541 
	C164.303879,410.656067 172.661285,410.588593 181.930527,410.725952 
	C190.617950,410.664703 199.305374,410.603455 208.911880,410.742737 
	C216.278061,410.679901 223.644241,410.617065 231.925232,410.752167 
	C243.278473,410.694702 254.631714,410.637268 266.893341,410.771759 
	C273.597137,410.425751 280.300934,410.079712 287.827026,409.821716 
	C294.553772,408.471161 301.280518,407.120605 308.751007,405.750458 
	C315.853882,402.878815 322.956726,400.007172 330.821655,397.070923 
	C336.903992,393.787689 342.986328,390.504456 349.739838,387.021729 
	C354.875336,383.036682 360.010834,379.051666 365.760223,374.824310 
	C368.159637,372.487518 370.559082,370.150726 373.550812,367.541779 
	C378.400604,361.708069 383.250366,355.874329 388.675140,349.702393 
	C391.835541,344.583344 394.995941,339.464264 398.711884,333.908936 
	C401.156006,328.636047 403.600128,323.363159 406.565948,317.602509 
	C413.459900,301.089600 417.251221,283.898529 417.999573,265.086090 
	C417.954376,260.394745 417.909180,255.703415 418.009857,250.139206 
	C417.674194,246.426743 417.338531,242.714264 417.106354,238.131409 
	C416.206604,232.700348 415.306854,227.269287 414.320923,221.053421 
	C413.529236,218.370178 412.737549,215.686935 412.033783,212.234711 
	C410.990814,209.158981 409.947815,206.083267 408.897797,202.278931 
	C407.694885,199.478470 406.491974,196.678009 405.143005,193.161713 
	C403.727264,190.443893 402.311493,187.726089 400.930206,184.298157 
	C399.400299,181.662811 397.870392,179.027466 396.172089,175.807678 
	C395.377625,174.542206 394.583191,173.276733 393.608765,171.383942 
	C392.061157,169.260010 390.513519,167.136093 388.767914,164.382736 
	C387.262787,162.538879 385.757690,160.695023 384.032471,158.209106 
	C381.929443,155.810654 379.826447,153.412201 377.494385,150.418869 
	C374.025665,147.171982 370.556915,143.925110 366.756042,140.138321 
	C363.831818,137.767654 360.907623,135.396973 357.621429,132.467239 
	C354.746094,130.675903 351.870758,128.884583 348.383850,126.786278 
	C345.932465,125.157806 343.481079,123.529343 340.603485,121.370537 
	C337.430603,119.850456 334.257751,118.330376 330.604187,116.312874 
	C326.064209,114.571701 321.524231,112.830528 316.345673,110.714882 
	C312.900360,109.785103 309.455017,108.855324 305.417297,107.425865 
	C303.296692,107.249168 301.176117,107.072472 298.594421,106.293228 
	C294.392853,105.592804 290.191284,104.892380 285.148407,104.043022 
	C261.801880,103.831650 238.455338,103.620277 214.170990,103.257256 
	C189.930634,103.227829 165.690063,103.131325 141.449997,103.202583 
	C131.988998,103.230392 126.113136,108.292854 124.502060,117.316231 
	C124.594002,117.923317 124.685944,118.530411 124.745987,119.959129 
	C124.737389,121.329269 124.728798,122.699402 124.305656,124.744522 
	C124.244759,125.570129 124.130714,126.395721 124.130577,127.221336 
	C124.124329,165.770935 124.124687,204.320526 124.144623,242.870117 
	C124.145302,244.186981 124.354004,245.503769 124.307503,247.666321 
	C124.383224,249.084930 124.458946,250.503525 124.248230,252.841171 
	C124.334862,258.901184 124.421494,264.961212 124.286499,271.926392 
z"/>
<path fill="#6E9CFC" opacity="1.000000" stroke="none" 
	d="
M124.720200,124.069542 
	C124.728798,122.699402 124.737389,121.329269 124.840813,119.190796 
	C124.912865,117.938263 124.890091,117.454063 124.867310,116.969856 
	C126.113136,108.292854 131.988998,103.230392 141.449997,103.202583 
	C165.690063,103.131325 189.930634,103.227829 214.974854,103.537460 
	C220.512405,103.906181 225.246078,103.994690 229.982056,104.442505 
	C225.444748,115.584160 216.053741,121.882607 207.140167,128.197342 
	C197.112427,135.301407 185.258850,138.143982 173.005432,139.010239 
	C169.386566,139.266068 165.626801,140.358505 162.180954,139.720627 
	C150.162994,137.495819 138.851410,133.322372 129.071518,125.642517 
	C127.988693,124.792213 126.439819,124.535400 125.007584,124.003563 
	C124.908066,124.003784 124.720200,124.069542 124.720200,124.069542 
z"/>
<path fill="#C38DA5" opacity="1.000000" stroke="none" 
	d="
M124.697281,322.983215 
	C124.585907,318.640869 124.474525,314.298492 124.895065,309.490356 
	C136.733536,309.874329 146.679581,307.600525 153.410004,297.003357 
	C160.879715,295.665955 167.943741,294.338013 175.315308,293.161682 
	C178.395721,295.024597 181.412628,296.447174 183.873413,298.527618 
	C186.375076,300.642639 188.609650,300.736237 191.562332,299.763824 
	C197.954865,297.658539 204.466675,295.915405 210.955109,294.273376 
	C211.000244,294.688477 211.019958,294.854309 211.020294,295.314209 
	C211.161972,296.336639 211.323029,297.065094 211.582626,298.256287 
	C211.585312,302.140625 211.489456,305.562164 211.021332,308.990356 
	C202.800842,309.997314 194.863068,310.553467 187.127701,312.113373 
	C177.994492,313.955170 169.036285,316.664764 159.548523,318.998535 
	C156.295609,319.202240 153.482071,319.288849 150.699875,319.630615 
	C142.025970,320.696228 133.363922,321.858459 124.697281,322.983215 
z"/>
<path fill="#92B2C7" opacity="1.000000" stroke="none" 
	d="
M316.984253,111.089355 
	C321.524231,112.830528 326.064209,114.571701 330.694183,116.915100 
	C322.484955,140.590347 311.806061,162.407059 297.007355,182.093552 
	C294.383698,185.583771 292.274536,189.460739 289.531189,193.117783 
	C283.749786,192.054901 278.364960,191.033340 273.019897,189.663849 
	C274.929688,186.822296 276.606415,184.151688 278.700958,181.863541 
	C293.067963,166.168320 303.095947,147.782227 311.575897,128.504974 
	C314.007843,122.976524 315.215332,116.909454 316.984253,111.089355 
z"/>
<path fill="#82A9E9" opacity="1.000000" stroke="none" 
	d="
M229.979767,104.083199 
	C225.246078,103.994690 220.512405,103.906181 215.443756,103.613289 
	C238.455338,103.620277 261.801880,103.831650 285.563934,104.487885 
	C281.040924,119.611275 274.153778,133.335358 265.357697,146.056747 
	C262.222656,150.590881 258.470093,154.698074 254.641541,159.036102 
	C250.423508,161.326904 246.669876,163.795166 242.678879,165.788071 
	C236.201462,169.022552 229.568512,171.945526 222.976746,174.680756 
	C222.634857,173.574356 222.317429,172.787170 222.147675,171.697144 
	C228.732819,165.227219 235.977631,159.693542 241.425278,152.749924 
	C250.392227,141.320572 258.384186,129.102249 266.372620,116.944176 
	C268.709412,113.387718 269.640747,108.907814 271.519043,104.071548 
	C268.237152,104.071548 266.108002,104.071548 263.520691,104.052155 
	C259.369720,104.046089 255.676956,104.059410 251.524780,104.056870 
	C247.373505,104.051689 243.681625,104.062370 239.536316,104.057350 
	C236.048523,104.055496 233.014145,104.069344 229.979767,104.083199 
z"/>
<path fill="#84AADF" opacity="1.000000" stroke="none" 
	d="
M254.999390,159.000137 
	C258.470093,154.698074 262.222656,150.590881 265.357697,146.056747 
	C274.153778,133.335358 281.040924,119.611275 285.984589,104.562347 
	C290.191284,104.892380 294.392853,105.592804 298.675354,106.931656 
	C291.877411,124.428604 284.910126,141.293182 273.167084,155.490540 
	C266.780914,163.211380 259.699982,170.361481 252.859116,177.700684 
	C248.979187,181.863251 244.951141,185.887772 240.538986,190.027771 
	C237.056519,190.042969 234.024872,190.004868 231.001923,189.608032 
	C231.206223,188.634827 231.225769,187.854401 231.624496,187.431427 
	C235.808105,182.993332 240.336334,178.846100 244.200729,174.150543 
	C248.132156,169.373535 251.426224,164.071991 254.999390,159.000137 
z"/>
<path fill="#FD8E23" opacity="1.000000" stroke="none" 
	d="
M308.007263,405.770050 
	C301.280518,407.120605 294.553772,408.471161 287.412964,409.374237 
	C284.863922,401.095154 283.370178,393.011230 280.415710,385.502045 
	C277.387756,377.805969 275.523468,370.602692 280.302216,362.864349 
	C286.076538,357.167755 291.540100,351.606812 297.359680,345.878784 
	C302.052551,344.366730 306.370148,342.950928 310.749115,341.760895 
	C311.336914,341.601135 312.234375,342.580872 312.985413,343.406403 
	C311.988159,346.519379 310.993988,349.258911 309.722595,352.123718 
	C308.624969,352.835205 307.804565,353.421448 306.627319,354.041809 
	C302.478760,356.068756 298.744598,358.183502 294.875153,360.011841 
	C292.277527,361.239258 291.603302,362.697052 292.645294,365.485321 
	C296.040436,374.570526 299.184357,383.749390 302.493774,392.867218 
	C302.877258,393.923676 303.856415,394.757874 304.276459,395.808258 
	C305.592834,399.099762 306.773834,402.445374 308.007263,405.770050 
z"/>
<path fill="#8CAFD2" opacity="1.000000" stroke="none" 
	d="
M316.664978,110.902115 
	C315.215332,116.909454 314.007843,122.976524 311.575897,128.504974 
	C303.095947,147.782227 293.067963,166.168320 278.700958,181.863541 
	C276.606415,184.151688 274.929688,186.822296 272.557556,189.705414 
	C267.366486,190.055450 262.677551,190.015976 257.996124,189.612549 
	C258.455505,188.217865 258.660889,186.947205 259.395935,186.192154 
	C271.845734,173.403046 282.319214,159.167633 290.962280,143.561279 
	C297.246613,132.213928 303.027679,120.663101 306.009705,107.925545 
	C309.455017,108.855324 312.900360,109.785103 316.664978,110.902115 
z"/>
<path fill="#EA737D" opacity="1.000000" stroke="none" 
	d="
M124.891525,377.973358 
	C124.855324,370.287384 124.819122,362.601440 125.259460,354.448792 
	C133.159912,352.647339 140.580780,351.295166 148.010193,349.991699 
	C149.593506,349.713898 151.318436,349.156219 152.788574,349.511597 
	C158.691101,350.938507 164.423065,350.486908 170.189972,348.850555 
	C172.059036,348.320221 174.065201,348.273041 176.472427,348.003784 
	C181.048645,348.002655 185.161102,348.002655 189.185120,348.002655 
	C190.015457,353.191772 187.780991,355.789703 183.505707,357.277954 
	C180.587891,358.293701 177.823120,359.748993 174.576691,361.008911 
	C166.863281,363.306030 159.397797,365.200928 152.348801,368.106293 
	C149.730835,369.185333 148.088974,372.632660 145.571320,374.998505 
	C138.390930,375.989105 131.641235,376.981232 124.891525,377.973358 
z"/>
<path fill="#B1C18E" opacity="1.000000" stroke="none" 
	d="
M367.088196,140.678223 
	C370.556915,143.925110 374.025665,147.171982 377.275757,150.769684 
	C376.359985,151.961960 375.407898,152.696350 375.002930,153.660522 
	C365.208710,176.980896 352.673096,198.732391 337.390717,218.863647 
	C334.296112,222.940140 330.308838,226.339035 326.500275,229.816711 
	C324.540649,226.047211 322.813843,222.511337 321.428467,218.943451 
	C323.112274,217.736801 324.746979,216.768997 325.748718,215.353271 
	C331.463379,207.276947 337.246674,199.235001 342.595184,190.916840 
	C352.731476,175.152664 361.095459,158.482941 367.088196,140.678223 
z"/>
<path fill="#FB726A" opacity="1.000000" stroke="none" 
	d="
M146.001984,375.000000 
	C148.088974,372.632660 149.730835,369.185333 152.348801,368.106293 
	C159.397797,365.200928 166.863281,363.306030 174.629028,361.347656 
	C177.731766,363.786102 180.368927,365.886963 182.994659,368.397034 
	C182.653503,371.536987 182.323807,374.267639 181.609924,377.043518 
	C176.635895,378.375000 172.106476,379.981476 167.440079,380.861725 
	C162.286423,381.833893 159.449005,385.213043 158.413666,389.646698 
	C156.813416,396.499481 156.112442,403.562225 155.030090,410.535950 
	C148.625397,410.378754 142.220718,410.221558 135.410980,409.567688 
	C138.711823,397.596802 139.657272,384.809265 150.933685,376.877289 
	C148.944382,376.120056 147.473175,375.560028 146.001984,375.000000 
z"/>
<path fill="#FDA813" opacity="1.000000" stroke="none" 
	d="
M309.999786,351.998444 
	C310.993988,349.258911 311.988159,346.519379 313.359222,343.392273 
	C314.772217,342.579926 315.852722,342.238861 316.837128,341.716644 
	C322.900421,338.500061 328.942047,335.242615 334.992615,332.436707 
	C334.997498,334.919250 335.000580,336.963898 335.008087,339.383789 
	C337.966278,348.977478 347.448151,353.458496 351.226990,362.082001 
	C351.278992,362.200775 351.536377,362.212830 351.654510,362.321777 
	C354.757629,365.183777 357.868805,368.037384 360.947388,370.925629 
	C362.380554,372.270264 363.748718,373.684143 365.146332,375.066650 
	C360.010834,379.051666 354.875336,383.036682 349.348755,386.767578 
	C346.687927,383.375793 343.968079,380.462708 342.262512,377.043671 
	C340.134003,372.776886 339.146423,367.840546 333.062744,367.445312 
	C332.325073,367.397430 331.443359,366.817413 330.948059,366.219299 
	C326.751770,361.151733 322.629669,356.022766 318.112610,350.452637 
	C316.100983,350.835938 313.050385,351.417175 309.999786,351.998444 
z"/>
<path fill="#FC7A35" opacity="1.000000" stroke="none" 
	d="
M265.984955,410.579803 
	C254.631714,410.637268 243.278473,410.694702 231.465347,410.226929 
	C231.331833,404.293365 231.646851,398.884369 231.987823,393.476959 
	C232.313156,388.317596 232.665588,383.160004 233.390732,377.956787 
	C240.516296,376.941284 247.257233,375.970642 253.998642,375.418640 
	C253.764038,379.504883 254.689377,382.266907 257.923096,384.816376 
	C261.739105,387.824982 264.939392,391.753479 265.089630,397.251648 
	C265.211090,401.699188 265.673676,406.137421 265.984955,410.579803 
z"/>
<path fill="#AABE9B" opacity="1.000000" stroke="none" 
	d="
M366.922119,140.408264 
	C361.095459,158.482941 352.731476,175.152664 342.595184,190.916840 
	C337.246674,199.235001 331.463379,207.276947 325.748718,215.353271 
	C324.746979,216.768997 323.112274,217.736801 321.155029,218.749832 
	C318.638428,215.827545 316.736664,213.066879 314.983521,209.982178 
	C333.839630,186.587906 347.919373,160.929855 357.983398,133.026306 
	C360.907623,135.396973 363.831818,137.767654 366.922119,140.408264 
z"/>
<path fill="#99B5BB" opacity="1.000000" stroke="none" 
	d="
M289.927765,193.159088 
	C292.274536,189.460739 294.383698,185.583771 297.007355,182.093552 
	C311.806061,162.407059 322.484955,140.590347 330.934509,117.163803 
	C334.257751,118.330376 337.430603,119.850456 340.801758,122.031975 
	C340.938354,123.185982 340.968567,123.712288 340.801819,124.166260 
	C332.612762,146.461258 322.265869,167.662857 308.311707,186.951538 
	C305.601562,190.697739 301.934326,193.751556 298.373901,197.061707 
	C295.335388,195.718796 292.631561,194.438950 289.927765,193.159088 
z"/>
<path fill="#E9D825" opacity="1.000000" stroke="none" 
	d="
M414.407104,221.838226 
	C415.306854,227.269287 416.206604,232.700348 416.715576,238.614655 
	C412.175018,244.597870 408.072479,250.134216 403.866516,255.590851 
	C391.932648,271.073395 379.956512,286.523407 367.676208,302.154388 
	C364.255524,305.001556 362.223602,304.677826 361.599915,300.295380 
	C361.442566,299.189728 361.206177,298.095306 361.039551,296.638245 
	C365.411011,286.997101 370.521240,278.293854 377.040405,270.238251 
	C386.821411,258.152161 395.707123,245.344437 405.091339,232.932632 
	C407.999878,229.085754 411.291107,225.528229 414.407104,221.838226 
z"/>
<path fill="#B8C480" opacity="1.000000" stroke="none" 
	d="
M326.733093,230.050308 
	C330.308838,226.339035 334.296112,222.940140 337.390717,218.863647 
	C352.673096,198.732391 365.208710,176.980896 375.002930,153.660522 
	C375.407898,152.696350 376.359985,151.961960 377.390289,151.067123 
	C379.826447,153.412201 381.929443,155.810654 383.832458,158.730286 
	C381.840363,162.987823 380.053009,166.726501 378.255371,170.460205 
	C367.399414,193.008118 353.637299,213.709152 338.092438,233.247513 
	C335.797852,236.131592 332.765289,238.428528 329.893707,240.666702 
	C328.719879,236.907639 327.726471,233.478973 326.733093,230.050308 
z"/>
<path fill="#FD9D17" opacity="1.000000" stroke="none" 
	d="
M309.722595,352.123718 
	C313.050385,351.417175 316.100983,350.835938 318.112610,350.452637 
	C322.629669,356.022766 326.751770,361.151733 330.948059,366.219299 
	C331.443359,366.817413 332.325073,367.397430 333.062744,367.445312 
	C339.146423,367.840546 340.134003,372.776886 342.262512,377.043671 
	C343.968079,380.462708 346.687927,383.375793 349.013153,386.867310 
	C342.986328,390.504456 336.903992,393.787689 330.296387,396.788635 
	C327.331268,392.300232 324.891937,388.093842 322.451324,383.888184 
	C321.730286,382.645630 321.300598,380.996948 320.236298,380.227875 
	C311.264862,373.745514 307.462372,364.736969 306.984131,354.007690 
	C307.804565,353.421448 308.624969,352.835205 309.722595,352.123718 
z"/>
<path fill="#FC6E48" opacity="1.000000" stroke="none" 
	d="
M207.992798,410.542175 
	C199.305374,410.603455 190.617950,410.664703 181.488281,410.235168 
	C181.141190,404.335297 181.477356,398.916565 181.261536,393.519958 
	C181.059036,388.456573 179.453369,383.172241 185.951233,380.542419 
	C186.833298,380.185425 187.332413,378.882202 188.457535,378.013062 
	C197.271606,378.335388 205.636993,378.661804 214.006256,379.238708 
	C214.012268,379.656219 214.014374,379.823212 213.970093,380.370056 
	C213.275253,382.772766 212.395203,384.753662 212.019455,386.826019 
	C210.588989,394.715424 209.321320,402.634308 207.992798,410.542175 
z"/>
<path fill="#FD9216" opacity="1.000000" stroke="none" 
	d="
M306.627319,354.041779 
	C307.462372,364.736969 311.264862,373.745514 320.236298,380.227875 
	C321.300598,380.996948 321.730286,382.645630 322.451324,383.888184 
	C324.891937,388.093842 327.331268,392.300232 329.915344,396.820923 
	C322.956726,400.007172 315.853882,402.878815 308.379150,405.760254 
	C306.773834,402.445374 305.592834,399.099762 304.276459,395.808258 
	C303.856415,394.757874 302.877258,393.923676 302.493774,392.867218 
	C299.184357,383.749390 296.040436,374.570526 292.645294,365.485321 
	C291.603302,362.697052 292.277527,361.239258 294.875153,360.011841 
	C298.744598,358.183502 302.478760,356.068756 306.627319,354.041779 
z"/>
<path fill="#FC872B" opacity="1.000000" stroke="none" 
	d="
M266.439148,410.675781 
	C265.673676,406.137421 265.211090,401.699188 265.089630,397.251648 
	C264.939392,391.753479 261.739105,387.824982 257.923096,384.816376 
	C254.689377,382.266907 253.764038,379.504883 254.304535,375.269928 
	C262.434143,369.421600 270.387665,364.421204 279.991455,363.000000 
	C275.523468,370.602692 277.387756,377.805969 280.415710,385.502045 
	C283.370178,393.011230 284.863922,401.095154 287.001831,409.330200 
	C280.300934,410.079712 273.597137,410.425751 266.439148,410.675781 
z"/>
<path fill="#89ACD9" opacity="1.000000" stroke="none" 
	d="
M305.713501,107.675705 
	C303.027679,120.663101 297.246613,132.213928 290.962280,143.561279 
	C282.319214,159.167633 271.845734,173.403046 259.395935,186.192154 
	C258.660889,186.947205 258.455505,188.217865 257.532104,189.665039 
	C251.703674,190.045822 246.346741,190.010162 240.989807,189.974487 
	C244.951141,185.887772 248.979187,181.863251 252.859116,177.700684 
	C259.699982,170.361481 266.780914,163.211380 273.167084,155.490540 
	C284.910126,141.293182 291.877411,124.428604 298.905884,107.232925 
	C301.176117,107.072472 303.296692,107.249168 305.713501,107.675705 
z"/>
<path fill="#D5D04A" opacity="1.000000" stroke="none" 
	d="
M405.289093,193.877548 
	C406.491974,196.678009 407.694885,199.478470 408.558899,202.683136 
	C407.324432,203.993210 406.247223,204.779617 405.560974,205.823120 
	C397.123047,218.653778 389.229492,231.877472 380.190308,244.266388 
	C373.142853,253.925476 364.589813,262.475708 356.907623,271.686920 
	C353.672577,275.565796 350.956726,279.877655 347.648376,284.032135 
	C343.863312,285.705811 340.434692,287.340027 337.009796,288.589355 
	C338.676056,283.473328 340.338623,278.742157 342.267761,273.821014 
	C344.023254,271.753204 345.512238,269.875366 347.358093,267.964172 
	C353.533600,265.793823 357.151581,261.310059 361.075623,256.699860 
	C375.306488,239.980850 387.267487,221.785278 398.190765,202.816223 
	C400.068481,199.555420 402.898804,196.843185 405.289093,193.877548 
z"/>
<path fill="#A4BAA7" opacity="1.000000" stroke="none" 
	d="
M357.802429,132.746765 
	C347.919373,160.929855 333.839630,186.587906 314.706451,209.787231 
	C311.856689,207.608734 309.432617,205.301178 307.354584,202.957626 
	C309.785156,200.645752 312.155182,198.569366 313.907532,196.061401 
	C324.721375,180.584641 334.751404,164.625961 341.906433,147.071167 
	C344.570618,140.534622 346.649597,133.759552 348.995422,127.093254 
	C351.870758,128.884583 354.746094,130.675903 357.802429,132.746765 
z"/>
<path fill="#9FB8B1" opacity="1.000000" stroke="none" 
	d="
M348.689636,126.939766 
	C346.649597,133.759552 344.570618,140.534622 341.906433,147.071167 
	C334.751404,164.625961 324.721375,180.584641 313.907532,196.061401 
	C312.155182,198.569366 309.785156,200.645752 307.037231,202.842773 
	C303.818756,200.884201 301.263672,199.004486 298.708588,197.124756 
	C301.934326,193.751556 305.601562,190.697739 308.311707,186.951538 
	C322.265869,167.662857 332.612762,146.461258 340.801819,124.166260 
	C340.968567,123.712288 340.938354,123.185982 341.014832,122.297142 
	C343.481079,123.529343 345.932465,125.157806 348.689636,126.939766 
z"/>
<path fill="#CACC5E" opacity="1.000000" stroke="none" 
	d="
M347.001221,267.997559 
	C345.512238,269.875366 344.023254,271.753204 341.911377,273.851379 
	C336.896423,276.050140 332.504395,278.028625 328.113159,279.616943 
	C329.154297,274.487823 330.194580,269.748840 331.593811,265.001099 
	C333.584839,264.235291 335.364868,263.693024 336.825378,262.686920 
	C347.885559,255.067841 354.634766,243.584351 362.309265,233.108704 
	C375.364380,215.288452 386.784393,196.370270 396.340515,176.392105 
	C397.870392,179.027466 399.400299,181.662811 400.579529,184.707947 
	C398.876678,186.953415 397.215881,188.636398 396.220245,190.648514 
	C386.927399,209.428970 375.021851,226.487717 362.478027,243.197174 
	C356.639923,250.973999 348.264374,257.317383 347.001221,267.997559 
z"/>
<path fill="#E1D535" opacity="1.000000" stroke="none" 
	d="
M414.364014,221.445831 
	C411.291107,225.528229 407.999878,229.085754 405.091339,232.932632 
	C395.707123,245.344437 386.821411,258.152161 377.040405,270.238251 
	C370.521240,278.293854 365.411011,286.997101 360.691437,296.677399 
	C356.872437,299.716034 353.434998,302.358002 349.604431,304.990784 
	C344.649017,304.691376 343.022217,302.589478 344.973602,298.203094 
	C346.032440,295.822968 347.010925,293.407074 348.377258,290.970276 
	C351.933868,288.418640 355.611084,286.317291 358.247253,283.304932 
	C364.021454,276.706604 369.442078,269.776611 374.693024,262.747437 
	C385.191986,248.692841 395.457123,234.463745 405.875885,220.348831 
	C407.759308,217.797211 409.915558,215.446945 411.945862,213.003693 
	C412.737549,215.686935 413.529236,218.370178 414.364014,221.445831 
z"/>
<path fill="#FDBC08" opacity="1.000000" stroke="none" 
	d="
M388.100128,350.040588 
	C383.250366,355.874329 378.400604,361.708069 373.222382,367.339203 
	C370.717529,363.637665 368.557770,360.128174 366.359985,356.642639 
	C364.165344,353.162140 362.707001,348.444733 359.551849,346.506927 
	C353.401184,342.729584 352.183716,336.755798 350.146301,330.702087 
	C353.527496,325.917938 356.844910,321.547974 363.129395,321.311096 
	C370.467377,332.036194 377.052216,342.988342 388.100128,350.040588 
z"/>
<path fill="#DBD33F" opacity="1.000000" stroke="none" 
	d="
M411.989807,212.619202 
	C409.915558,215.446945 407.759308,217.797211 405.875885,220.348831 
	C395.457123,234.463745 385.191986,248.692841 374.693024,262.747437 
	C369.442078,269.776611 364.021454,276.706604 358.247253,283.304932 
	C355.611084,286.317291 351.933868,288.418640 348.368134,290.531738 
	C348.006592,288.084412 348.005737,286.038544 348.004883,283.992676 
	C350.956726,279.877655 353.672577,275.565796 356.907623,271.686920 
	C364.589813,262.475708 373.142853,253.925476 380.190308,244.266388 
	C389.229492,231.877472 397.123047,218.653778 405.560974,205.823120 
	C406.247223,204.779617 407.324432,203.993210 408.562408,203.047440 
	C409.947815,206.083267 410.990814,209.158981 411.989807,212.619202 
z"/>
<path fill="#FB6856" opacity="1.000000" stroke="none" 
	d="
M188.008820,378.017090 
	C187.332413,378.882202 186.833298,380.185425 185.951233,380.542419 
	C179.453369,383.172241 181.059036,388.456573 181.261536,393.519958 
	C181.477356,398.916565 181.141190,404.335297 181.032364,410.132721 
	C172.661285,410.588593 164.303879,410.656067 155.488281,410.629761 
	C156.112442,403.562225 156.813416,396.499481 158.413666,389.646698 
	C159.449005,385.213043 162.286423,381.833893 167.440079,380.861725 
	C172.106476,379.981476 176.635895,378.375000 181.871613,377.327972 
	C184.347931,377.717163 186.178375,377.867126 188.008820,378.017090 
z"/>
<path fill="#BFC677" opacity="1.000000" stroke="none" 
	d="
M330.074158,240.997116 
	C332.765289,238.428528 335.797852,236.131592 338.092438,233.247513 
	C353.637299,213.709152 367.399414,193.008118 378.255371,170.460205 
	C380.053009,166.726501 381.840363,162.987823 383.942505,159.051315 
	C385.757690,160.695023 387.262787,162.538879 388.595917,164.901627 
	C375.596436,192.905273 359.737366,218.525162 340.800049,242.204803 
	C338.140961,245.529755 334.525970,248.090225 331.246704,250.587997 
	C330.784698,247.113327 330.429443,244.055222 330.074158,240.997116 
z"/>
<path fill="#CF82A1" opacity="1.000000" stroke="none" 
	d="
M124.536980,323.431305 
	C133.363922,321.858459 142.025970,320.696228 150.699875,319.630615 
	C153.482071,319.288849 156.295609,319.202240 159.694153,319.300964 
	C161.532059,321.739014 162.770645,323.875000 163.798981,326.291565 
	C157.189148,328.348236 155.712280,333.128448 155.578583,338.991943 
	C153.837936,339.131073 152.523788,339.235474 151.219772,339.413818 
	C142.425354,340.616730 133.633087,341.835297 124.840118,343.048767 
	C124.685638,336.658966 124.531151,330.269196 124.536980,323.431305 
z"/>
<path fill="#D0CE55" opacity="1.000000" stroke="none" 
	d="
M347.358093,267.964172 
	C348.264374,257.317383 356.639923,250.973999 362.478027,243.197174 
	C375.021851,226.487717 386.927399,209.428970 396.220245,190.648514 
	C397.215881,188.636398 398.876678,186.953415 400.562317,185.063019 
	C402.311493,187.726089 403.727264,190.443893 405.216064,193.519623 
	C402.898804,196.843185 400.068481,199.555420 398.190765,202.816223 
	C387.267487,221.785278 375.306488,239.980850 361.075623,256.699860 
	C357.151581,261.310059 353.533600,265.793823 347.358093,267.964172 
z"/>
<path fill="#FEDF04" opacity="1.000000" stroke="none" 
	d="
M417.843475,266.008179 
	C417.251221,283.898529 413.459900,301.089600 406.158081,317.537354 
	C402.459869,313.773651 399.058350,310.166504 395.917542,306.345062 
	C393.757782,303.717255 391.959717,300.792206 390.035339,297.650482 
	C390.367340,296.718109 390.567383,296.055023 390.974945,295.564331 
	C397.720490,287.443054 404.405365,279.268341 411.316803,271.290039 
	C413.120819,269.207520 415.648254,267.751770 417.843475,266.008179 
z"/>
<path fill="#FEC806" opacity="1.000000" stroke="none" 
	d="
M388.387634,349.871490 
	C377.052216,342.988342 370.467377,332.036194 363.275055,321.011414 
	C367.514008,316.267822 371.745178,312.134521 376.252075,308.227600 
	C378.883362,312.318054 380.778046,316.581818 383.701965,319.952881 
	C388.145172,325.075531 393.302429,329.578827 398.156372,334.345215 
	C394.995941,339.464264 391.835541,344.583344 388.387634,349.871490 
z"/>
<path fill="#9D9ADA" opacity="1.000000" stroke="none" 
	d="
M124.534668,251.922134 
	C124.458946,250.503525 124.383224,249.084930 124.574768,246.916946 
	C124.926018,242.441238 125.009995,238.714890 125.483734,235.001068 
	C136.068512,239.212357 145.969070,234.674728 156.378052,234.163574 
	C160.504623,234.553055 164.252914,234.777130 168.000824,235.434357 
	C168.333832,238.911667 168.667221,241.955841 168.785889,245.285187 
	C161.710510,248.049606 154.849869,250.528824 147.521423,253.007584 
	C139.547302,252.645462 132.040985,252.283798 124.534668,251.922134 
z"/>
<path fill="#FDB20C" opacity="1.000000" stroke="none" 
	d="
M350.000000,331.004883 
	C352.183716,336.755798 353.401184,342.729584 359.551849,346.506927 
	C362.707001,348.444733 364.165344,353.162140 366.359985,356.642639 
	C368.557770,360.128174 370.717529,363.637665 372.926239,367.475281 
	C370.559082,370.150726 368.159637,372.487518 365.453278,374.945496 
	C363.748718,373.684143 362.380554,372.270264 360.947388,370.925629 
	C357.868805,368.037384 354.757629,365.183777 351.654510,362.321777 
	C351.536377,362.212830 351.278992,362.200775 351.226990,362.082001 
	C347.448151,353.458496 337.966278,348.977478 335.360138,339.344299 
	C340.471832,336.288025 345.235931,333.646454 350.000000,331.004883 
z"/>
<path fill="#C2C86E" opacity="1.000000" stroke="none" 
	d="
M331.353455,251.004562 
	C334.525970,248.090225 338.140961,245.529755 340.800049,242.204803 
	C359.737366,218.525162 375.596436,192.905273 388.694916,165.216339 
	C390.513519,167.136093 392.061157,169.260010 393.357605,171.747467 
	C392.354431,173.102997 391.491211,174.029984 390.867126,175.096848 
	C382.172150,189.961212 374.000763,205.161423 364.674530,219.617035 
	C357.975067,230.001236 349.921387,239.541458 342.105927,249.160919 
	C339.096405,252.865112 335.074432,255.746735 331.419586,258.567688 
	C331.334778,255.756363 331.344116,253.380463 331.353455,251.004562 
z"/>
<path fill="#FC743E" opacity="1.000000" stroke="none" 
	d="
M208.452332,410.642456 
	C209.321320,402.634308 210.588989,394.715424 212.019455,386.826019 
	C212.395203,384.753662 213.275253,382.772766 214.401855,380.370178 
	C220.922012,379.327545 226.964066,378.664581 233.006104,378.001617 
	C232.665588,383.160004 232.313156,388.317596 231.987823,393.476959 
	C231.646851,398.884369 231.331833,404.293365 231.007935,410.127991 
	C223.644241,410.617065 216.278061,410.679901 208.452332,410.642456 
z"/>
<path fill="#C7C966" opacity="1.000000" stroke="none" 
	d="
M331.513763,259.003143 
	C335.074432,255.746735 339.096405,252.865112 342.105927,249.160919 
	C349.921387,239.541458 357.975067,230.001236 364.674530,219.617035 
	C374.000763,205.161423 382.172150,189.961212 390.867126,175.096848 
	C391.491211,174.029984 392.354431,173.102997 393.447632,172.061127 
	C394.583191,173.276733 395.377625,174.542206 396.256287,176.099884 
	C386.784393,196.370270 375.364380,215.288452 362.309265,233.108704 
	C354.634766,243.584351 347.885559,255.067841 336.825378,262.686920 
	C335.364868,263.693024 333.584839,264.235291 331.537262,264.572693 
	C331.252411,262.436371 331.383087,260.719757 331.513763,259.003143 
z"/>
<path fill="#EFDA1B" opacity="1.000000" stroke="none" 
	d="
M367.997009,301.986206 
	C379.956512,286.523407 391.932648,271.073395 403.866516,255.590851 
	C408.072479,250.134216 412.175018,244.597870 416.663818,239.049866 
	C417.338531,242.714264 417.674194,246.426743 417.598022,250.615845 
	C416.638458,251.435928 415.942841,251.662384 415.564758,252.140137 
	C408.323639,261.289856 401.112091,270.463043 393.911102,279.644470 
	C389.357544,285.450317 384.081482,290.893433 383.692383,299.141357 
	C380.922607,301.522949 378.455597,303.755157 375.831390,305.680969 
	C373.115143,304.245087 370.556061,303.115631 367.997009,301.986206 
z"/>
<path fill="#DA7F88" opacity="1.000000" stroke="none" 
	d="
M124.801956,343.501648 
	C133.633087,341.835297 142.425354,340.616730 151.219772,339.413818 
	C152.523788,339.235474 153.837936,339.131073 155.994995,338.992188 
	C162.137894,338.074402 167.408081,336.949066 172.736420,336.304749 
	C177.044998,335.783752 181.617157,334.985748 184.860703,339.316162 
	C181.810760,342.413635 178.909714,345.209259 176.008652,348.004883 
	C174.065201,348.273041 172.059036,348.320221 170.189972,348.850555 
	C164.423065,350.486908 158.691101,350.938507 152.788574,349.511597 
	C151.318436,349.156219 149.593506,349.713898 148.010193,349.991699 
	C140.580780,351.295166 133.159912,352.647339 125.323563,353.982422 
	C124.862022,350.639984 124.812912,347.297211 124.801956,343.501648 
z"/>
<path fill="#FED405" opacity="1.000000" stroke="none" 
	d="
M375.988586,305.987396 
	C378.455597,303.755157 380.922607,301.522949 384.072632,299.102356 
	C386.503723,298.609314 388.251862,298.304657 390.000000,298.000000 
	C391.959717,300.792206 393.757782,303.717255 395.917542,306.345062 
	C399.058350,310.166504 402.459869,313.773651 405.897217,317.781219 
	C403.600128,323.363159 401.156006,328.636047 398.434143,334.127075 
	C393.302429,329.578827 388.145172,325.075531 383.701965,319.952881 
	C380.778046,316.581818 378.883362,312.318054 376.256409,307.892029 
	C375.986237,306.882507 375.987396,306.434937 375.988586,305.987396 
z"/>
<path fill="#B691BB" opacity="1.000000" stroke="none" 
	d="
M175.007782,293.010071 
	C167.943741,294.338013 160.879715,295.665955 153.037354,296.837891 
	C143.036896,295.438751 133.814774,294.195648 124.592667,292.952545 
	C124.510269,291.902771 124.427879,290.853027 124.832611,289.407715 
	C134.215454,287.005249 143.111160,284.998352 152.474731,282.992859 
	C160.963882,282.992676 168.985199,282.991119 177.133820,283.289520 
	C178.177338,285.056763 179.093552,286.524017 179.817657,288.262085 
	C178.086304,290.025299 176.547043,291.517700 175.007782,293.010071 
z"/>
<path fill="#FA6771" opacity="1.000000" stroke="none" 
	d="
M145.571320,374.998505 
	C147.473175,375.560028 148.944382,376.120056 150.933685,376.877289 
	C139.657272,384.809265 138.711823,397.596802 135.004700,409.466858 
	C128.044113,407.213318 124.688644,402.113312 124.709450,394.719696 
	C124.724289,389.449249 124.742317,384.178833 124.825226,378.440857 
	C131.641235,376.981232 138.390930,375.989105 145.571320,374.998505 
z"/>
<path fill="#B596C9" opacity="1.000000" stroke="none" 
	d="
M152.006882,282.991455 
	C143.111160,284.998352 134.215454,287.005249 124.951820,289.025665 
	C124.484764,283.334900 124.385628,277.630646 124.767624,271.447998 
	C129.162003,270.643036 133.075272,270.316467 137.249176,270.275513 
	C143.674850,271.707886 149.839859,272.854553 155.968658,274.356384 
	C154.623917,277.471527 153.315399,280.231506 152.006882,282.991455 
z"/>
<path fill="#F7DC0F" opacity="1.000000" stroke="none" 
	d="
M390.035339,297.650452 
	C388.251862,298.304657 386.503723,298.609314 384.375366,298.953003 
	C384.081482,290.893433 389.357544,285.450317 393.911102,279.644470 
	C401.112091,270.463043 408.323639,261.289856 415.564758,252.140137 
	C415.942841,251.662384 416.638458,251.435928 417.525085,251.052277 
	C417.909180,255.703415 417.954376,260.394745 417.921509,265.547119 
	C415.648254,267.751770 413.120819,269.207520 411.316803,271.290039 
	C404.405365,279.268341 397.720490,287.443054 390.974945,295.564331 
	C390.567383,296.055023 390.367340,296.718109 390.035339,297.650452 
z"/>
<path fill="#AEA1D8" opacity="1.000000" stroke="none" 
	d="
M136.988525,269.989868 
	C133.075272,270.316467 129.162003,270.643036 124.878433,270.995422 
	C124.421494,264.961212 124.334862,258.901184 124.391449,252.381653 
	C132.040985,252.283798 139.547302,252.645462 147.558289,253.353241 
	C149.706192,256.132324 151.349457,258.565308 152.786865,261.278137 
	C149.862900,262.709198 147.040085,263.666992 144.455933,265.065735 
	C141.843689,266.479675 139.467896,268.330444 136.988525,269.989868 
z"/>
<path fill="#C491BB" opacity="1.000000" stroke="none" 
	d="
M124.444725,293.405396 
	C133.814774,294.195648 143.036896,295.438751 152.631668,296.847321 
	C146.679581,307.600525 136.733536,309.874329 125.022430,309.047882 
	C124.510834,304.000214 124.403809,298.929230 124.444725,293.405396 
z"/>
<path fill="#AEA1D8" opacity="1.000000" stroke="none" 
	d="
M125.093971,234.988556 
	C125.009995,238.714890 124.926018,242.441238 124.653893,246.494080 
	C124.354004,245.503769 124.145302,244.186981 124.144623,242.870117 
	C124.124687,204.320526 124.124329,165.770935 124.130577,127.221336 
	C124.130714,126.395721 124.244759,125.570129 124.512924,124.407028 
	C124.720200,124.069542 124.908066,124.003784 124.969467,124.470612 
	C125.061745,132.956787 125.092621,140.976120 125.084892,149.368744 
	C125.065514,150.490906 125.084740,151.239792 125.072327,152.456909 
	C125.061905,159.613495 125.083138,166.301865 125.070862,173.458160 
	C125.059074,179.613785 125.080803,185.301483 125.070938,191.457672 
	C125.058807,197.947327 125.078262,203.968536 125.072227,210.458313 
	C125.062485,218.947464 125.078224,226.968002 125.093971,234.988556 
z"/>
<path fill="#AEA1D8" opacity="1.000000" stroke="none" 
	d="
M124.684685,117.143044 
	C124.890091,117.454063 124.912865,117.938263 124.856766,118.779984 
	C124.685944,118.530411 124.594002,117.923317 124.684685,117.143044 
z"/>
<path fill="#749EF9" opacity="1.000000" stroke="none" 
	d="
M125.123497,148.995468 
	C125.092621,140.976120 125.061745,132.956787 125.068985,124.470390 
	C126.439819,124.535400 127.988693,124.792213 129.071518,125.642517 
	C138.851410,133.322372 150.162994,137.495819 162.180954,139.720627 
	C165.626801,140.358505 169.386566,139.266068 173.005432,139.010239 
	C185.258850,138.143982 197.112427,135.301407 207.140167,128.197342 
	C216.053741,121.882607 225.444748,115.584160 229.982056,104.442505 
	C233.014145,104.069344 236.048523,104.055496 239.534958,104.419479 
	C232.921219,119.825546 221.624023,131.251892 208.071350,140.240845 
	C199.853348,145.691528 190.692398,149.793091 181.737610,154.042526 
	C169.698013,159.755829 157.171265,162.338150 143.613464,158.000031 
	C141.483597,157.665894 139.741486,157.332336 137.948853,156.656189 
	C133.640045,153.874222 129.381775,151.434845 125.123497,148.995468 
z"/>
<path fill="#FFFFFE" opacity="1.000000" stroke="none" 
	d="
M331.419586,258.567688 
	C331.383087,260.719757 331.252411,262.436371 331.178284,264.581421 
	C330.194580,269.748840 329.154297,274.487823 327.926819,279.924500 
	C325.513794,285.450867 323.287933,290.279541 320.800262,295.307251 
	C312.835815,307.510559 302.212860,315.914764 288.584625,321.097473 
	C281.124878,322.070099 274.062866,323.049774 266.537537,323.950348 
	C256.710022,323.916077 247.345825,323.960846 237.518616,323.933472 
	C230.660004,323.852844 224.259155,323.986969 217.871948,323.751434 
	C215.879684,323.677948 213.924240,322.605316 211.930115,321.527557 
	C211.736710,317.037933 211.565155,313.010834 211.393600,308.983734 
	C211.489456,305.562164 211.585312,302.140625 211.710632,297.923157 
	C211.663437,296.417633 211.586777,295.708038 211.627167,294.544952 
	C211.728790,260.427856 211.713394,226.764221 211.893997,192.747940 
	C213.962036,191.637497 215.792511,190.383240 217.714554,190.222229 
	C222.117004,189.853470 226.564194,190.018478 230.993210,189.966751 
	C234.024872,190.004868 237.056519,190.042969 240.539001,190.027771 
	C246.346741,190.010162 251.703674,190.045822 257.524597,190.028992 
	C262.677551,190.015976 267.366486,190.055450 272.517761,190.053345 
	C278.364960,191.033340 283.749786,192.054901 289.531189,193.117767 
	C292.631561,194.438950 295.335388,195.718796 298.373901,197.061707 
	C301.263672,199.004486 303.818756,200.884201 306.691162,202.878784 
	C309.432617,205.301178 311.856689,207.608734 314.557861,210.111252 
	C316.736664,213.066879 318.638428,215.827545 320.813599,218.781830 
	C322.813843,222.511337 324.540649,226.047211 326.500244,229.816711 
	C327.726471,233.478973 328.719879,236.907639 329.893738,240.666702 
	C330.429443,244.055222 330.784698,247.113327 331.246704,250.587997 
	C331.344116,253.380463 331.334778,255.756363 331.419586,258.567688 
z"/>
<path fill="#C88B9B" opacity="1.000000" stroke="none" 
	d="
M211.021332,308.990356 
	C211.565155,313.010834 211.736710,317.037933 211.517914,321.530518 
	C205.306625,322.993530 199.341400,325.288574 193.701187,324.661285 
	C186.598251,323.871277 179.774872,323.782043 172.812012,324.985809 
	C169.905548,325.488251 166.945129,325.678680 164.009247,326.010986 
	C162.770645,323.875000 161.532059,321.739014 160.147842,319.300568 
	C169.036285,316.664764 177.994492,313.955170 187.127701,312.113373 
	C194.863068,310.553467 202.800842,309.997314 211.021332,308.990356 
z"/>
<path fill="#B6A2BB" opacity="1.000000" stroke="none" 
	d="
M211.697998,193.100601 
	C211.713394,226.764221 211.728790,260.427856 211.510742,294.552002 
	C211.277283,295.012512 211.039673,295.020172 211.039673,295.020172 
	C211.019958,294.854309 211.000244,294.688477 210.980423,293.805969 
	C210.980331,288.862122 210.980331,284.634918 210.980331,280.053040 
	C200.074600,282.848358 190.042191,285.419800 180.009766,287.991272 
	C179.093552,286.524017 178.177338,285.056763 177.329224,283.017700 
	C184.593552,278.468903 191.448792,273.583862 199.064575,270.724274 
	C210.991364,266.245972 211.209091,266.825836 210.932190,253.521530 
	C210.938690,248.038055 210.925476,243.020203 210.938919,237.535553 
	C210.951065,232.044678 210.936569,227.020615 210.944595,221.532593 
	C210.951736,216.711502 210.936371,212.354355 210.949692,207.548065 
	C210.957642,204.398636 210.936890,201.698380 210.943481,198.605896 
	C211.213211,196.509308 211.455612,194.804962 211.697998,193.100601 
z"/>
<path fill="#BB9AAD" opacity="1.000000" stroke="none" 
	d="
M179.817657,288.262085 
	C190.042191,285.419800 200.074600,282.848358 210.980331,280.053040 
	C210.980331,284.634918 210.980331,288.862122 210.955017,293.556763 
	C204.466675,295.915405 197.954865,297.658539 191.562332,299.763824 
	C188.609650,300.736237 186.375076,300.642639 183.873413,298.527618 
	C181.412628,296.447174 178.395721,295.024597 175.315308,293.161682 
	C176.547043,291.517700 178.086304,290.025299 179.817657,288.262085 
z"/>
<path fill="#BB9AAD" opacity="1.000000" stroke="none" 
	d="
M211.020294,295.314209 
	C211.039673,295.020172 211.277283,295.012512 211.393707,295.005493 
	C211.586777,295.708038 211.663437,296.417633 211.612091,297.460388 
	C211.323029,297.065094 211.161972,296.336639 211.020294,295.314209 
z"/>
<path fill="#76A0F5" opacity="1.000000" stroke="none" 
	d="
M144.001221,158.000610 
	C157.171265,162.338150 169.698013,159.755829 181.737610,154.042526 
	C190.692398,149.793091 199.853348,145.691528 208.071350,140.240845 
	C221.624023,131.251892 232.921219,119.825546 239.988373,104.435188 
	C243.681625,104.062370 247.373505,104.051689 251.490601,104.409424 
	C249.194351,109.695396 246.662811,114.730026 243.716797,119.509148 
	C233.768082,135.648239 220.280350,148.083496 203.658798,157.150314 
	C199.447052,159.447739 195.220016,161.717117 190.550003,163.999619 
	C178.383163,165.750717 166.690338,165.157684 155.156815,162.856827 
	C151.270035,162.081421 147.710388,159.666321 144.001221,158.000610 
z"/>
<path fill="#7CA3EE" opacity="1.000000" stroke="none" 
	d="
M263.978851,104.071548 
	C266.108002,104.071548 268.237152,104.071548 271.519043,104.071548 
	C269.640747,108.907814 268.709412,113.387718 266.372620,116.944176 
	C258.384186,129.102249 250.392227,141.320572 241.425278,152.749924 
	C235.977631,159.693542 228.732819,165.227219 221.760880,171.703339 
	C218.734406,172.885117 216.204041,173.662537 213.757050,174.647156 
	C203.550171,178.754318 193.064102,181.612991 181.815750,181.748840 
	C180.753723,180.997421 179.876556,180.498398 179.054810,179.649277 
	C180.443863,178.483032 181.909790,177.822357 183.085968,176.821259 
	C186.453796,173.954788 189.704102,170.950256 193.416077,167.999969 
	C195.611282,167.695648 197.489502,167.659103 199.155762,167.046249 
	C218.864319,159.797516 235.892929,148.469131 248.408279,131.560928 
	C254.627167,123.159233 258.851959,113.281517 263.978851,104.071548 
z"/>
<path fill="#78A2F1" opacity="1.000000" stroke="none" 
	d="
M263.520691,104.052155 
	C258.851959,113.281517 254.627167,123.159233 248.408279,131.560928 
	C235.892929,148.469131 218.864319,159.797516 199.155762,167.046249 
	C197.489502,167.659103 195.611282,167.695648 193.274811,167.705139 
	C192.145401,166.273361 191.572708,165.136368 191.000000,163.999390 
	C195.220016,161.717117 199.447052,159.447739 203.658798,157.150314 
	C220.280350,148.083496 233.768082,135.648239 243.716797,119.509148 
	C246.662811,114.730026 249.194351,109.695396 251.950012,104.425293 
	C255.676956,104.059410 259.369720,104.046089 263.520691,104.052155 
z"/>
<path fill="#82A1EB" opacity="1.000000" stroke="none" 
	d="
M182.000610,182.001221 
	C193.064102,181.612991 203.550171,178.754318 213.757050,174.647156 
	C216.204041,173.662537 218.734406,172.885117 221.613220,172.006195 
	C222.317429,172.787170 222.634857,173.574356 222.828766,174.983795 
	C215.942810,180.497375 209.221069,185.446381 202.403931,190.260239 
	C197.670578,193.602646 192.805969,196.759186 187.599915,199.999115 
	C186.132889,199.999649 185.065918,199.999817 183.710800,199.705475 
	C176.281754,198.607101 169.140884,197.803238 162.049576,196.659149 
	C167.326111,192.751312 172.578644,189.220261 177.764069,185.593262 
	C179.274673,184.536621 180.593735,183.206161 182.000610,182.001221 
z"/>
<path fill="#84A5E5" opacity="1.000000" stroke="none" 
	d="
M188.000000,199.998779 
	C192.805969,196.759186 197.670578,193.602646 202.403931,190.260239 
	C209.221069,185.446381 215.942810,180.497375 222.853241,175.303009 
	C229.568512,171.945526 236.201462,169.022552 242.678879,165.788071 
	C246.669876,163.795166 250.423508,161.326904 254.641541,159.036102 
	C251.426224,164.071991 248.132156,169.373535 244.200729,174.150543 
	C240.336334,178.846100 235.808105,182.993332 231.624496,187.431427 
	C231.225769,187.854401 231.206223,188.634827 231.001923,189.608032 
	C226.564194,190.018478 222.117004,189.853470 217.714554,190.222229 
	C215.792511,190.383240 213.962036,191.637497 211.893997,192.747940 
	C211.455612,194.804962 211.213211,196.509308 210.484329,198.606552 
	C202.665222,199.332550 195.332611,199.665665 188.000000,199.998779 
z"/>
<path fill="#F7873A" opacity="1.000000" stroke="none" 
	d="
M233.390732,377.956787 
	C226.964066,378.664581 220.922012,379.327545 214.448227,379.990356 
	C214.014374,379.823212 214.012268,379.656219 214.199707,378.969971 
	C222.563248,372.062653 230.692123,365.755219 241.147202,363.134644 
	C243.455612,362.556000 245.049301,359.126068 247.353241,357.002075 
	C252.158691,354.991180 256.583008,352.987366 261.423889,350.987366 
	C266.571289,350.325775 271.302155,349.660339 276.082764,349.339172 
	C276.929749,349.886261 277.793579,350.398407 278.513672,350.243286 
	C284.691742,348.912567 290.843811,347.461182 297.003662,346.045868 
	C291.540100,351.606812 286.076538,357.167755 280.302216,362.864349 
	C270.387665,364.421204 262.434143,369.421600 254.304047,374.851257 
	C247.257233,375.970642 240.516296,376.941284 233.390732,377.956787 
z"/>
<path fill="#EEA832" opacity="1.000000" stroke="none" 
	d="
M297.359680,345.878784 
	C290.843811,347.461182 284.691742,348.912567 278.513672,350.243286 
	C277.793579,350.398407 276.929749,349.886261 276.378723,349.191132 
	C280.445709,345.272736 284.112122,341.649506 288.143829,338.492859 
	C290.652771,336.528412 293.546082,334.509094 296.560638,333.842255 
	C304.483459,332.089661 311.628418,328.988983 318.366486,323.948822 
	C320.656281,323.725861 323.600128,322.684082 324.283813,323.511017 
	C327.106964,326.925659 329.374023,324.738281 331.914856,323.556732 
	C334.575317,322.319519 337.283112,321.184052 340.121155,320.334412 
	C339.993225,322.456390 340.116760,324.451324 339.338959,325.990936 
	C338.238342,328.169739 336.472443,330.012451 334.990906,331.998779 
	C328.942047,335.242615 322.900421,338.500061 316.837128,341.716644 
	C315.852722,342.238861 314.772217,342.579926 313.362305,343.018860 
	C312.234375,342.580872 311.336914,341.601135 310.749115,341.760895 
	C306.370148,342.950928 302.052551,344.366730 297.359680,345.878784 
z"/>
<path fill="#DE8572" opacity="1.000000" stroke="none" 
	d="
M176.472427,348.003784 
	C178.909714,345.209259 181.810760,342.413635 185.274734,339.312531 
	C190.947449,337.819641 196.017212,336.377228 201.186005,335.565338 
	C203.373398,335.221710 205.787384,336.117279 208.065414,336.603821 
	C211.113312,337.254852 214.097092,338.307861 217.170654,338.698975 
	C219.049332,338.937988 221.044830,338.258881 223.220840,338.264069 
	C227.964996,340.356659 232.476181,342.177368 236.953827,344.341217 
	C235.272034,346.787872 233.623779,348.891357 231.576508,351.004333 
	C226.676895,352.089569 222.105057,352.935333 217.694626,354.301971 
	C212.691910,355.852142 207.343109,357.102386 203.029175,359.864349 
	C196.756134,363.880615 190.353882,366.926483 183.006104,367.987793 
	C180.368927,365.886963 177.731766,363.786102 175.042267,361.346497 
	C177.823120,359.748993 180.587891,358.293701 183.505707,357.277954 
	C187.780991,355.789703 190.015457,353.191772 189.185120,348.002655 
	C185.161102,348.002655 181.048645,348.002655 176.472427,348.003784 
z"/>
<path fill="#F1785D" opacity="1.000000" stroke="none" 
	d="
M182.994659,368.397034 
	C190.353882,366.926483 196.756134,363.880615 203.029175,359.864349 
	C207.343109,357.102386 212.691910,355.852142 217.694626,354.301971 
	C222.105057,352.935333 226.676895,352.089569 231.785553,351.290649 
	C234.491821,355.199371 237.736298,356.256012 241.754532,356.077332 
	C243.476501,356.000732 245.231903,356.675629 246.972107,357.009094 
	C245.049301,359.126068 243.455612,362.556000 241.147202,363.134644 
	C230.692123,365.755219 222.563248,372.062653 214.195816,378.719482 
	C205.636993,378.661804 197.271606,378.335388 188.457520,378.013062 
	C186.178375,377.867126 184.347931,377.717163 182.255798,377.282776 
	C182.323807,374.267639 182.653503,371.536987 182.994659,368.397034 
z"/>
<path fill="#F7B819" opacity="1.000000" stroke="none" 
	d="
M334.992645,332.436707 
	C336.472443,330.012451 338.238342,328.169739 339.338959,325.990936 
	C340.116760,324.451324 339.993225,322.456390 340.277405,320.030579 
	C343.520996,314.597656 346.759277,309.798828 349.997559,305.000000 
	C353.434998,302.358002 356.872437,299.716034 360.657959,297.034912 
	C361.206177,298.095306 361.442566,299.189728 361.599915,300.295380 
	C362.223602,304.677826 364.255524,305.001556 367.676208,302.154388 
	C370.556061,303.115631 373.115143,304.245087 375.831390,305.680969 
	C375.987396,306.434937 375.986237,306.882507 375.980713,307.665619 
	C371.745178,312.134521 367.514008,316.267822 363.137146,320.700806 
	C356.844910,321.547974 353.527496,325.917938 350.146301,330.702087 
	C345.235931,333.646454 340.471832,336.288025 335.355713,338.969055 
	C335.000580,336.963898 334.997498,334.919250 334.992645,332.436707 
z"/>
<path fill="#E5B63B" opacity="1.000000" stroke="none" 
	d="
M349.604431,304.990784 
	C346.759277,309.798828 343.520996,314.597656 340.126465,319.700287 
	C337.283112,321.184052 334.575317,322.319519 331.914856,323.556732 
	C329.374023,324.738281 327.106964,326.925659 324.283813,323.511017 
	C323.600128,322.684082 320.656281,323.725861 318.408752,323.582581 
	C321.379333,314.509674 324.692932,305.762482 328.311340,296.874084 
	C331.412842,294.146637 334.209473,291.560455 337.006104,288.974243 
	C340.434692,287.340027 343.863312,285.705811 347.648376,284.032135 
	C348.005737,286.038544 348.006592,288.084412 348.016541,290.568787 
	C347.010925,293.407074 346.032440,295.822968 344.973602,298.203094 
	C343.022217,302.589478 344.649017,304.691376 349.604431,304.990784 
z"/>
<path fill="#D0CE55" opacity="1.000000" stroke="none" 
	d="
M337.009796,288.589355 
	C334.209473,291.560455 331.412842,294.146637 327.967590,296.718536 
	C325.233337,296.172211 323.147705,295.640198 321.062073,295.108185 
	C323.287933,290.279541 325.513794,285.450867 327.925995,280.314636 
	C332.504395,278.028625 336.896423,276.050140 341.644836,274.041321 
	C340.338623,278.742157 338.676056,283.473328 337.009796,288.589355 
z"/>
<path fill="#D28A86" opacity="1.000000" stroke="none" 
	d="
M222.987869,337.992157 
	C221.044830,338.258881 219.049332,338.937988 217.170654,338.698975 
	C214.097092,338.307861 211.113312,337.254852 208.065414,336.603821 
	C205.787384,336.117279 203.373398,335.221710 201.186005,335.565338 
	C196.017212,336.377228 190.947449,337.819641 185.423615,339.010681 
	C181.617157,334.985748 177.044998,335.783752 172.736420,336.304749 
	C167.408081,336.949066 162.137894,338.074402 156.426178,338.991699 
	C155.712280,333.128448 157.189148,328.348236 163.798996,326.291565 
	C166.945129,325.678680 169.905548,325.488251 172.812012,324.985809 
	C179.774872,323.782043 186.598251,323.871277 193.701187,324.661285 
	C199.341400,325.288574 205.306625,322.993530 211.539734,321.993042 
	C213.924240,322.605316 215.879684,323.677948 217.871948,323.751434 
	C224.259155,323.986969 230.660004,323.852844 237.489014,324.280884 
	C236.827286,325.860687 235.820999,327.123596 234.620636,328.162201 
	C230.781769,331.483582 226.870926,334.721832 222.987869,337.992157 
z"/>
<path fill="#A09BCF" opacity="1.000000" stroke="none" 
	d="
M210.912262,238.002350 
	C210.925476,243.020203 210.938690,248.038055 210.539490,253.525665 
	C208.076553,254.506851 206.021057,254.999222 203.976471,255.533310 
	C198.314133,257.012482 192.656326,258.509064 186.605545,259.952454 
	C181.367783,259.600281 176.504593,258.890564 171.678802,259.089264 
	C165.434494,259.346375 159.220032,260.328369 152.992722,260.998260 
	C151.349457,258.565308 149.706192,256.132324 148.026093,253.353699 
	C154.849869,250.528824 161.710510,248.049606 169.253632,245.285187 
	C184.118149,245.731842 197.646545,242.636185 210.912262,238.002350 
z"/>
<path fill="#91A0DD" opacity="1.000000" stroke="none" 
	d="
M210.921005,207.997223 
	C210.936371,212.354355 210.951736,216.711502 210.551147,221.534607 
	C206.066147,223.344498 202.021133,224.767136 197.923355,226.016769 
	C187.962357,229.054367 177.976852,232.011597 168.001221,235.001221 
	C164.252914,234.777130 160.504623,234.553055 156.413330,233.814728 
	C159.713776,228.534058 163.357193,223.767639 167.432312,219.000854 
	C177.175354,216.861542 186.515915,214.840286 195.786438,212.537033 
	C200.892090,211.268509 205.880005,209.526016 210.921005,207.997223 
z"/>
<path fill="#949CE3" opacity="1.000000" stroke="none" 
	d="
M167.000610,219.001221 
	C163.357193,223.767639 159.713776,228.534058 156.035065,233.649323 
	C145.969070,234.674728 136.068512,239.212357 125.483734,235.001068 
	C125.078224,226.968002 125.062485,218.947464 125.433311,210.507172 
	C131.213943,211.724762 136.608002,213.362076 142.250168,215.280212 
	C150.665726,216.707764 158.833160,217.854492 167.000610,219.001221 
z"/>
<path fill="#98A0D4" opacity="1.000000" stroke="none" 
	d="
M168.000824,235.434357 
	C177.976852,232.011597 187.962357,229.054367 197.923355,226.016769 
	C202.021133,224.767136 206.066147,223.344498 210.528625,221.998566 
	C210.936569,227.020615 210.951065,232.044678 210.938919,237.535553 
	C197.646545,242.636185 184.118149,245.731842 169.468369,245.000000 
	C168.667221,241.955841 168.333832,238.911667 168.000824,235.434357 
z"/>
<path fill="#A79CBF" opacity="1.000000" stroke="none" 
	d="
M186.996735,259.998779 
	C192.656326,258.509064 198.314133,257.012482 203.976471,255.533310 
	C206.021057,254.999222 208.076553,254.506851 210.519775,253.991302 
	C211.209091,266.825836 210.991364,266.245972 199.064575,270.724274 
	C191.448792,273.583862 184.593552,278.468903 177.201920,282.717712 
	C168.985199,282.991119 160.963882,282.992676 152.474731,282.992859 
	C153.315399,280.231506 154.623917,277.471527 156.371246,274.348785 
	C160.357529,273.299591 163.881592,272.436890 167.457199,271.962280 
	C175.777634,270.857880 181.566940,265.752502 186.996735,259.998779 
z"/>
<path fill="#A898C8" opacity="1.000000" stroke="none" 
	d="
M186.605545,259.952454 
	C181.566940,265.752502 175.777634,270.857880 167.457199,271.962280 
	C163.881592,272.436890 160.357529,273.299591 156.407471,273.993591 
	C149.839859,272.854553 143.674850,271.707886 137.249176,270.275513 
	C139.467896,268.330444 141.843689,266.479675 144.455933,265.065735 
	C147.040085,263.666992 149.862900,262.709198 152.786865,261.278137 
	C159.220032,260.328369 165.434494,259.346375 171.678802,259.089264 
	C176.504593,258.890564 181.367783,259.600281 186.605545,259.952454 
z"/>
<path fill="#7C9FF4" opacity="1.000000" stroke="none" 
	d="
M190.550003,163.999619 
	C191.572708,165.136368 192.145401,166.273361 192.859344,167.705170 
	C189.704102,170.950256 186.453796,173.954788 183.085968,176.821259 
	C181.909790,177.822357 180.443863,178.483032 178.614746,179.649536 
	C169.205627,180.333282 160.292374,180.873550 151.378174,180.889145 
	C148.205734,180.894699 144.953888,179.868759 141.874176,178.887268 
	C136.230942,177.088821 130.688705,174.973450 125.104362,172.990234 
	C125.083138,166.301865 125.061905,159.613495 125.439438,152.467178 
	C129.891922,153.672424 133.945648,155.335602 137.999390,156.998779 
	C139.741486,157.332336 141.483597,157.665894 143.613464,158.000031 
	C147.710388,159.666321 151.270035,162.081421 155.156815,162.856827 
	C166.690338,165.157684 178.383163,165.750717 190.550003,163.999619 
z"/>
<path fill="#839EF0" opacity="1.000000" stroke="none" 
	d="
M125.070862,173.458160 
	C130.688705,174.973450 136.230942,177.088821 141.874176,178.887268 
	C144.953888,179.868759 148.205734,180.894699 151.378174,180.889145 
	C160.292374,180.873550 169.205627,180.333282 178.559326,179.999664 
	C179.876556,180.498398 180.753723,180.997421 181.815750,181.748840 
	C180.593735,183.206161 179.274673,184.536621 177.764069,185.593262 
	C172.578644,189.220261 167.326111,192.751312 161.581207,196.659393 
	C151.068329,197.224365 141.096146,197.399582 131.682281,193.090195 
	C129.603958,192.138779 127.301674,191.676636 125.102524,190.989197 
	C125.080803,185.301483 125.059074,179.613785 125.070862,173.458160 
z"/>
<path fill="#899EEB" opacity="1.000000" stroke="none" 
	d="
M125.070938,191.457672 
	C127.301674,191.676636 129.603958,192.138779 131.682281,193.090195 
	C141.096146,197.399582 151.068329,197.224365 161.531616,196.999603 
	C169.140884,197.803238 176.281754,198.607101 183.477859,199.982864 
	C175.116776,203.504333 166.704559,206.465622 158.282684,209.399216 
	C152.863144,211.287018 147.429428,213.134079 142.002060,214.999390 
	C136.608002,213.362076 131.213943,211.724762 125.458801,210.038574 
	C125.078262,203.968536 125.058807,197.947327 125.070938,191.457672 
z"/>
<path fill="#76A0F5" opacity="1.000000" stroke="none" 
	d="
M137.948853,156.656189 
	C133.945648,155.335602 129.891922,153.672424 125.471085,151.998962 
	C125.084740,151.239792 125.065514,150.490906 125.084892,149.368744 
	C129.381775,151.434845 133.640045,153.874222 137.948853,156.656189 
z"/>
<path fill="#E2A54D" opacity="1.000000" stroke="none" 
	d="
M320.800262,295.307251 
	C323.147705,295.640198 325.233337,296.172211 327.662720,296.859741 
	C324.692932,305.762482 321.379333,314.509674 318.023499,323.623108 
	C311.628418,328.988983 304.483459,332.089661 296.560638,333.842255 
	C293.546082,334.509094 290.652771,336.528412 288.143829,338.492859 
	C284.112122,341.649506 280.445709,345.272736 276.328949,348.846863 
	C271.302155,349.660339 266.571289,350.325775 261.427338,350.617859 
	C263.202637,344.823425 265.481537,339.592743 272.025024,337.949341 
	C279.923798,335.965546 283.229370,328.507507 288.585327,323.497589 
	C289.053864,323.059326 288.865570,321.918854 288.982361,321.104553 
	C302.212860,315.914764 312.835815,307.510559 320.800262,295.307251 
z"/>
<path fill="#E2915B" opacity="1.000000" stroke="none" 
	d="
M288.584656,321.097473 
	C288.865570,321.918854 289.053864,323.059326 288.585327,323.497589 
	C283.229370,328.507507 279.923798,335.965546 272.025024,337.949341 
	C265.481537,339.592743 263.202637,344.823425 261.010773,350.614075 
	C256.583008,352.987366 252.158691,354.991180 247.353241,357.002075 
	C245.231903,356.675629 243.476501,356.000732 241.754532,356.077332 
	C237.736298,356.256012 234.491821,355.199371 232.184570,351.281189 
	C233.623779,348.891357 235.272034,346.787872 237.316132,344.305786 
	C244.425751,340.810089 251.496552,338.262878 257.720276,334.363647 
	C261.491638,332.000824 263.951660,327.544922 267.000854,324.029419 
	C274.062866,323.049774 281.124878,322.070099 288.584656,321.097473 
z"/>
<path fill="#DC9366" opacity="1.000000" stroke="none" 
	d="
M266.537537,323.950348 
	C263.951660,327.544922 261.491638,332.000824 257.720276,334.363647 
	C251.496552,338.262878 244.425751,340.810089 237.349670,343.962585 
	C232.476181,342.177368 227.964996,340.356659 223.220840,338.264069 
	C226.870926,334.721832 230.781769,331.483582 234.620636,328.162201 
	C235.820999,327.123596 236.827286,325.860687 237.952026,324.353027 
	C247.345825,323.960846 256.710022,323.916077 266.537537,323.950348 
z"/>
<path fill="#8BA0E4" opacity="1.000000" stroke="none" 
	d="
M142.250168,215.280212 
	C147.429428,213.134079 152.863144,211.287018 158.282684,209.399216 
	C166.704559,206.465622 175.116776,203.504333 183.766022,200.277390 
	C185.065918,199.999817 186.132889,199.999649 187.599915,199.999115 
	C195.332611,199.665665 202.665222,199.332550 210.457001,198.998779 
	C210.936890,201.698380 210.957642,204.398636 210.949692,207.548050 
	C205.880005,209.526016 200.892090,211.268509 195.786438,212.537033 
	C186.515915,214.840286 177.175354,216.861542 167.432312,219.000854 
	C158.833160,217.854492 150.665726,216.707764 142.250168,215.280212 
z"/>
</svg>