<svg fill="none" height="24" viewBox="0 0 24 24" width="24" xmlns="http://www.w3.org/2000/svg"><g stroke="#292d32" stroke-width="1.5"><path d="m16.52 5.65002-3.1-2.4c-.4-.4-1.3-.6-1.9-.6h-3.80002c-1.2 0-2.5.9-2.8 2.1l-2.4 7.29998c-.5 1.4.4 2.6 1.9 2.6h4c.6 0 1.1.5 1 1.2l-.5 3.2c-.2.9.4 1.9 1.30002 2.2.8.3 1.8-.1 2.2-.7l4.1-6.1" stroke-miterlimit="10"/><path d="m21.62 5.65v9.8c0 1.4-.6 1.9-2 1.9h-1c-1.4 0-2-.5-2-1.9v-9.8c0-1.4.6-1.9 2-1.9h1c1.4 0 2 .5 2 1.9z" stroke-linecap="round" stroke-linejoin="round"/></g></svg>