<svg width="28" height="28" viewBox="0 0 28 28" fill="none" xmlns="http://www.w3.org/2000/svg">
<g clip-path="url(#clip0_365_1182)">
<path d="M27.282 14.3103C27.282 13.1625 27.1892 12.3249 26.9882 11.4563H13.9194V16.637H21.5905C21.4359 17.9244 20.6007 19.8633 18.7448 21.1662L18.7187 21.3396L22.8509 24.55L23.1371 24.5787C25.7663 22.1434 27.282 18.5603 27.282 14.3103Z" fill="#4285F4"/>
<path d="M13.9194 27.96C17.6776 27.96 20.8326 26.719 23.1372 24.5786L18.7448 21.1661C17.5694 21.9882 15.9918 22.5621 13.9194 22.5621C10.2385 22.5621 7.11442 20.1269 6.00076 16.761L5.83753 16.7749L1.5409 20.1098L1.48471 20.2664C3.77366 24.8267 8.47534 27.96 13.9194 27.96Z" fill="#34A853"/>
<path d="M6.00075 16.761C5.70691 15.8924 5.53685 14.9616 5.53685 14C5.53685 13.0382 5.70691 12.1076 5.9853 11.239L5.97751 11.054L1.62704 7.66553L1.4847 7.73343C0.541317 9.62581 0 11.7509 0 14C0 16.2491 0.541317 18.374 1.4847 20.2664L6.00075 16.761Z" fill="#FBBC05"/>
<path d="M13.9194 5.43787C16.5331 5.43787 18.2962 6.57018 19.3016 7.51642L23.2299 3.66964C20.8173 1.42053 17.6776 0.0400391 13.9194 0.0400391C8.47534 0.0400391 3.77366 3.17326 1.48471 7.73349L5.9853 11.239C7.11442 7.87314 10.2385 5.43787 13.9194 5.43787Z" fill="#EB4335"/>
</g>
<defs>
<clipPath id="clip0_365_1182">
<rect width="27.2821" height="28" fill="white"/>
</clipPath>
</defs>
</svg>
