<svg width="30" height="30" viewBox="0 0 30 30" fill="none" xmlns="http://www.w3.org/2000/svg">
<path d="M29.3333 26.66C29.3333 27.9546 27.3058 30 26.04 30H3.29C2.02421 30 0 27.9546 0 26.66V3.34C0 2.04544 2.02421 0 3.29 0H26.04C27.3058 0 29.3333 2.04544 29.3333 3.34" fill="#FFE812"/>
<path d="M14.6666 4.21875C8.08526 4.21875 2.74997 8.52127 2.74997 13.8281C2.74997 17.2591 4.98032 20.2698 8.33546 21.9699C8.15329 22.6135 7.16277 26.1118 7.12338 26.3864C7.12338 26.3864 7.09966 26.5929 7.23036 26.6716C7.36105 26.7503 7.51458 26.6895 7.51458 26.6895C7.88966 26.6359 11.8625 23.7817 12.55 23.2864C13.237 23.3858 13.9442 23.4375 14.6666 23.4375C21.248 23.4375 26.5833 19.1354 26.5833 13.8281C26.5833 8.52127 21.248 4.21875 14.6666 4.21875Z" fill="black"/>
<path d="M8.07811 17.1826C7.69901 17.1826 7.39061 16.8814 7.39061 16.5111V12.334H6.31774C5.94579 12.334 5.64322 12.025 5.64322 11.6455C5.64322 11.266 5.94579 10.957 6.31774 10.957H9.83849C10.2104 10.957 10.513 11.266 10.513 11.6455C10.513 12.025 10.2104 12.334 9.83849 12.334H8.76561V16.5111C8.76561 16.8814 8.45722 17.1826 8.07811 17.1826Z" fill="#FFE812"/>
<path d="M12.8324 14.7061L12.1458 12.7107L11.4592 14.7061H12.8324ZM14.1067 17.1735C13.8198 17.1735 13.6005 17.0544 13.5342 16.8626L13.1941 15.9512H11.0976L10.7569 16.8631C10.6911 17.0544 10.4718 17.1735 10.1854 17.1735C10.0336 17.1735 9.88235 17.14 9.74807 17.0764C9.55874 16.9872 9.37657 16.7409 9.58515 16.078L11.2296 11.651C11.3455 11.3145 11.6973 10.9676 12.1454 10.957C12.5943 10.9676 12.9461 11.3145 13.062 11.6519L14.706 16.0767C14.9155 16.7413 14.7329 16.9876 14.5436 17.0764C14.4088 17.14 14.258 17.1735 14.1067 17.1735Z" fill="#FFE812"/>
<path d="M15.8125 17.0801C15.4491 17.0801 15.1537 16.7908 15.1537 16.4355V11.6602C15.1537 11.2724 15.4683 10.957 15.8555 10.957C16.2426 10.957 16.5573 11.2724 16.5573 11.6602V15.791H18.0182C18.3817 15.791 18.6771 16.0803 18.6771 16.4355C18.6771 16.7908 18.3817 17.0801 18.0182 17.0801" fill="#FFE812"/>
<path d="M19.6322 17.1735C19.2527 17.1735 18.9447 16.8581 18.9447 16.4703V11.6602C18.9447 11.2724 19.2527 10.957 19.6322 10.957C20.0113 10.957 20.3197 11.2724 20.3197 11.6602V13.1712L22.2377 11.2097C22.3366 11.109 22.4718 11.0532 22.619 11.0532C22.7904 11.0532 22.9628 11.1287 23.0921 11.261C23.2125 11.3841 23.2846 11.5421 23.2944 11.7064C23.3043 11.8726 23.2501 12.0245 23.1427 12.1349L21.5757 13.737L23.268 16.0295C23.3786 16.1797 23.4256 16.3646 23.4001 16.5504C23.3745 16.7368 23.2801 16.9016 23.1333 17.0142C23.0129 17.1071 22.8701 17.1565 22.7197 17.1565C22.5017 17.1565 22.3017 17.0544 22.1705 16.8768L20.5583 14.6919L20.3197 14.9359V16.4699C20.3197 16.8581 20.0113 17.1735 19.6322 17.1735Z" fill="#FFE812"/>
</svg>
