<svg width="49" height="48" viewBox="0 0 49 48" fill="none" xmlns="http://www.w3.org/2000/svg">
<path d="M14.3584 38.5524L21.36 44.0014C22.2635 44.9095 24.2962 45.3636 25.6513 45.3636H34.2339C36.9442 45.3636 39.8804 43.3203 40.5579 40.5957L45.9785 24.0217C47.1078 20.8431 45.0751 18.1185 41.6872 18.1185H32.6529C31.2978 18.1185 30.1685 16.9833 30.3943 15.394L31.5236 8.12865C31.9753 6.08527 30.6202 3.81485 28.5875 3.13373C26.7806 2.4526 24.522 3.36077 23.6186 4.72302L14.3584 18.5726" stroke="#A86FE1" stroke-width="4" stroke-miterlimit="10"/>
<path d="M2.83984 38.5523V16.3022C2.83984 13.1236 4.19499 11.9884 7.357 11.9884H9.61557C12.7776 11.9884 14.1327 13.1236 14.1327 16.3022V38.5523C14.1327 41.7309 12.7776 42.8661 9.61557 42.8661H7.357C4.19499 42.8661 2.83984 41.7309 2.83984 38.5523Z" stroke="#A86FE1" stroke-width="4" stroke-linecap="round" stroke-linejoin="round"/>
</svg>
