<svg width="48" height="48" viewBox="0 0 48 48" fill="none" xmlns="http://www.w3.org/2000/svg">
<path d="M16.6079 38.9594H15.5519C7.10388 38.9594 2.87988 36.8363 2.87988 26.2209V15.6055C2.87988 7.11322 7.10388 2.86707 15.5519 2.86707H32.4479C40.8959 2.86707 45.1199 7.11322 45.1199 15.6055V26.2209C45.1199 34.7132 40.8959 38.9594 32.4479 38.9594H31.3919C30.7372 38.9594 30.1036 39.2778 29.7023 39.8086L26.5343 44.0548C25.1404 45.9231 22.8594 45.9231 21.4655 44.0548L18.2975 39.8086C17.9596 39.3415 17.1781 38.9594 16.6079 38.9594Z" stroke="#A86FE1" stroke-width="4" stroke-miterlimit="10" stroke-linecap="round" stroke-linejoin="round"/>
<path d="M32.4404 21.9746H32.461" stroke="#A86FE1" stroke-width="4" stroke-linecap="round" stroke-linejoin="round"/>
<path d="M23.9917 21.9746H24.0125" stroke="#A86FE1" stroke-width="4" stroke-linecap="round" stroke-linejoin="round"/>
<path d="M15.5405 21.9746H15.5613" stroke="#A86FE1" stroke-width="4" stroke-linecap="round" stroke-linejoin="round"/>
</svg>
