<svg xmlns="http://www.w3.org/2000/svg"  viewBox="0 0 100 100" width="50px" height="50px"><circle cx="77" cy="13" r="1" fill="#f1bc19"/><circle cx="50" cy="50" r="37" fill="#e4e4f9"/><circle cx="83" cy="15" r="4" fill="#f1bc19"/><circle cx="87" cy="24" r="2" fill="#8889b9"/><circle cx="81" cy="76" r="2" fill="#fbcd59"/><circle cx="15" cy="63" r="4" fill="#fbcd59"/><circle cx="25" cy="87" r="2" fill="#8889b9"/><circle cx="18.5" cy="51.5" r="2.5" fill="#fff"/><circle cx="79.5" cy="33.5" r="1.5" fill="#fff"/><path fill="#add4a1" d="M35,72.3c-4,0-7.3-3.3-7.3-7.3V35c0-4,3.3-7.3,7.3-7.3h30c4,0,7.3,3.3,7.3,7.3v30 c0,4-3.3,7.3-7.3,7.3H35z"/><path fill="#472b29" d="M65,28.4c3.6,0,6.6,3,6.6,6.6v30c0,3.6-3,6.6-6.6,6.6H35c-3.6,0-6.6-3-6.6-6.6V35 c0-3.6,3-6.6,6.6-6.6H65 M65,27H35c-4.4,0-8,3.6-8,8v30c0,4.4,3.6,8,8,8h30c4.4,0,8-3.6,8-8V35C73,30.6,69.4,27,65,27L65,27z"/><path fill="#fff" d="M68.812,48.213v1.8v14.3c0,2.5-2,4.5-4.5,4.5h-28c-2.5,0-4.5-2-4.5-4.5v-28c0-2.5,2-4.5,4.5-4.5 h25.4h2.6c2.5,0,4.5,2,4.5,4.5v3.4v2v1v1.1v2.9V48.213"/><path fill="#472b29" d="M68.5,47.4c-0.3,0-0.5-0.2-0.5-0.5V43c0-0.3,0.2-0.5,0.5-0.5S69,42.7,69,43v3.9 C69,47.2,68.8,47.4,68.5,47.4z M68.5,40.5c-0.3,0-0.5-0.2-0.5-0.5v-2c0-0.3,0.2-0.5,0.5-0.5S69,37.7,69,38v2 C69,40.3,68.8,40.5,68.5,40.5z"/><path fill="#472b29" d="M64,69H36c-2.8,0-5-2.2-5-5V36c0-2.8,2.2-5,5-5h25.4c0.3,0,0.5,0.2,0.5,0.5S61.7,32,61.4,32H36 c-2.2,0-4,1.8-4,4v28c0,2.2,1.8,4,4,4h28c2.2,0,4-1.8,4-4V49.6c0-0.3,0.2-0.5,0.5-0.5s0.5,0.2,0.5,0.5V64C69,66.8,66.8,69,64,69z"/><path fill="#add4a1" d="M59,39H41c-2.761,0-5,2.239-5,5v10c0,2.761,2.239,5,5,5h6.143l1.989,3.481 c0.384,0.672,1.353,0.672,1.736,0L52.857,59H59c2.761,0,5-2.239,5-5V44C64,41.239,61.761,39,59,39z"/><path fill="#472b29" d="M59,40c2.206,0,4,1.794,4,4v10c0,2.206-1.794,4-4,4h-6.143c-0.359,0-0.69,0.192-0.868,0.504 L50,61.984l-1.989-3.481C47.833,58.192,47.502,58,47.143,58H41c-2.206,0-4-1.794-4-4V44c0-2.206,1.794-4,4-4H59 M59,39H41 c-2.761,0-5,2.239-5,5v10c0,2.761,2.239,5,5,5h6.143l1.989,3.481c0.192,0.336,0.53,0.504,0.868,0.504s0.676-0.168,0.868-0.504 L52.857,59H59c2.761,0,5-2.239,5-5V44C64,41.239,61.761,39,59,39L59,39z"/><g><path fill="#fff" d="M51.188,51.951c-1.385,0-2.513-1.211-2.513-2.7s1.127-2.7,2.513-2.7s2.513,1.211,2.513,2.7 S52.573,51.951,51.188,51.951z M51.188,47.951c-0.613,0-1.112,0.583-1.112,1.3s0.499,1.3,1.112,1.3s1.112-0.583,1.112-1.3 S51.801,47.951,51.188,47.951z"/><path fill="#472b29" d="M51.188,52.201c-1.523,0-2.763-1.323-2.763-2.95s1.239-2.95,2.763-2.95s2.763,1.323,2.763,2.95 S52.711,52.201,51.188,52.201z M51.188,46.8c-1.248,0-2.263,1.099-2.263,2.45s1.015,2.45,2.263,2.45s2.263-1.099,2.263-2.45 S52.435,46.8,51.188,46.8z M51.188,50.8c-0.751,0-1.362-0.695-1.362-1.55s0.611-1.55,1.362-1.55s1.362,0.695,1.362,1.55 S51.938,50.8,51.188,50.8z M51.188,48.201c-0.476,0-0.862,0.471-0.862,1.05s0.387,1.05,0.862,1.05s0.862-0.471,0.862-1.05 S51.663,48.201,51.188,48.201z"/></g><g><path fill="#fff" d="M42.938,46.675c-0.434,0-0.836,0.135-1.188,0.355V45.25h-1.5v6.5h1.5v-0.279 c0.351,0.219,0.753,0.355,1.188,0.355c1.316,0,2.388-1.155,2.388-2.575S44.254,46.675,42.938,46.675z M42.938,50.425 c-0.544,0-0.987-0.527-0.987-1.175s0.443-1.175,0.987-1.175s0.987,0.527,0.987,1.175S43.482,50.425,42.938,50.425z"/><path fill="#472b29" d="M42.938,52.076c-0.332,0-0.656-0.069-0.968-0.206C41.927,51.948,41.845,52,41.75,52h-1.5 C40.112,52,40,51.889,40,51.75v-6.5c0-0.138,0.112-0.25,0.25-0.25h1.5c0.138,0,0.25,0.112,0.25,0.25v1.367 c0.302-0.128,0.616-0.192,0.938-0.192c1.455,0,2.638,1.268,2.638,2.825S44.392,52.076,42.938,52.076z M41.75,51.221 c0.046,0,0.092,0.013,0.133,0.038c0.336,0.21,0.691,0.317,1.055,0.317c1.179,0,2.138-1.043,2.138-2.325s-0.959-2.325-2.138-2.325 c-0.365,0-0.719,0.106-1.055,0.316c-0.077,0.048-0.175,0.05-0.254,0.007c-0.08-0.044-0.129-0.128-0.129-0.219V45.5h-1v6l1-0.03 c0-0.091,0.049-0.175,0.129-0.219C41.667,51.231,41.708,51.221,41.75,51.221z M42.938,50.675c-0.682,0-1.237-0.639-1.237-1.425 s0.555-1.425,1.237-1.425s1.237,0.639,1.237,1.425S43.62,50.675,42.938,50.675z M42.938,48.326c-0.407,0-0.737,0.415-0.737,0.925 s0.331,0.925,0.737,0.925s0.737-0.415,0.737-0.925S43.344,48.326,42.938,48.326z"/></g><g><path fill="#fff" d="M45.875,45.25H45.76h-0.385v1.5h0.5c0.375,0,0.375,0.625,0.375,0.625v1.01v3.365h1.5v-4.375 C47.75,45.25,46.625,45.25,45.875,45.25z"/><path fill="#472b29" d="M47.75,52h-1.5C46.112,52,46,51.889,46,51.75v-4.375C45.999,47.228,45.945,47,45.875,47h-0.5 c-0.138,0-0.25-0.112-0.25-0.25v-1.5c0-0.138,0.112-0.25,0.25-0.25h0.5C46.618,45,48,45,48,47.375v4.375 C48,51.889,47.888,52,47.75,52z M46.5,51.5h1v-4.125c0-1.875-0.863-1.875-1.625-1.875h-0.25v1h0.25 c0.432,0,0.625,0.44,0.625,0.875V51.5z"/></g><g><path fill="#fff" d="M58.25,46.75v0.353c-0.377-0.269-0.828-0.428-1.313-0.428c-1.316,0-2.388,1.155-2.388,2.575 s1.071,2.575,2.388,2.575c0.485,0,0.935-0.159,1.313-0.428v0.353c0,0.5-0.25,0.75-0.625,0.75h-0.087H57.25v1.25h0.375 c2.125,0,2.125-1.375,2.125-2v-5H58.25z M56.938,50.425c-0.544,0-0.987-0.527-0.987-1.175s0.443-1.175,0.987-1.175 s0.987,0.527,0.987,1.175S57.482,50.425,56.938,50.425z"/><path fill="#472b29" d="M57.625,54H57.25C57.112,54,57,53.888,57,53.75V52.5c0-0.138,0.112-0.25,0.25-0.25h0.375 c0.087,0,0.342,0,0.372-0.415c-0.333,0.158-0.693,0.24-1.06,0.24c-1.455,0-2.638-1.268-2.638-2.825s1.183-2.825,2.638-2.825 c0.373,0,0.738,0.084,1.075,0.247c0.033-0.1,0.127-0.172,0.238-0.172h1.5c0.138,0,0.25,0.112,0.25,0.25v5 C60,52.366,60,54,57.625,54z M57.5,53.5h0.125c1.875,0,1.875-1.095,1.875-1.75V47h-1v0.103c0,0.094-0.052,0.179-0.136,0.222 c-0.083,0.042-0.184,0.035-0.259-0.019c-0.35-0.25-0.753-0.381-1.167-0.381c-1.179,0-2.138,1.043-2.138,2.325 s0.959,2.325,2.138,2.325c0.414,0,0.817-0.132,1.167-0.382c0.075-0.055,0.176-0.062,0.259-0.019 c0.083,0.043,0.136,0.128,0.136,0.222v0.353c0,0.737-0.452,1-0.875,1H57.5V53.5z M56.938,50.675c-0.682,0-1.237-0.639-1.237-1.425 s0.555-1.425,1.237-1.425s1.237,0.639,1.237,1.425S57.62,50.675,56.938,50.675z M56.938,48.326c-0.407,0-0.737,0.415-0.737,0.925 s0.331,0.925,0.737,0.925s0.737-0.415,0.737-0.925S57.344,48.326,56.938,48.326z"/></g></svg>