<svg width="18" height="18" viewBox="0 0 18 18" fill="none" xmlns="http://www.w3.org/2000/svg">
<path d="M17.3721 18H3.13953C1.40651 18 0 16.5935 0 14.8605V0.627907C0 0.284651 0.284651 0 0.627907 0C0.971163 0 1.25581 0.284651 1.25581 0.627907V14.8605C1.25581 15.8986 2.1014 16.7442 3.13953 16.7442H17.3721C17.7153 16.7442 18 17.0288 18 17.3721C18 17.7153 17.7153 18 17.3721 18Z" fill="current"/>
<path d="M3.13935 13.8138C2.99703 13.8138 2.84633 13.7635 2.72912 13.6631C2.46959 13.437 2.4361 13.0435 2.66215 12.7756L6.50494 8.2882C6.92354 7.80261 7.52631 7.50959 8.16259 7.48447C8.79887 7.46773 9.42678 7.70215 9.87887 8.15424L10.6742 8.94959C10.8835 9.15889 11.1514 9.25936 11.4528 9.25936C11.7458 9.25099 12.0138 9.11703 12.2063 8.89099L16.0491 4.40356C16.2752 4.14403 16.6686 4.11054 16.9365 4.33658C17.1961 4.56263 17.2296 4.95612 17.0035 5.22403L13.1607 9.71145C12.7421 10.197 12.1393 10.4901 11.5031 10.5152C10.8584 10.5319 10.2389 10.2975 9.78678 9.8454L8.9998 9.05006C8.7905 8.84075 8.51422 8.73192 8.2212 8.74029C7.92818 8.74866 7.66027 8.88261 7.46771 9.10866L3.62494 13.5961C3.49098 13.7384 3.31517 13.8138 3.13935 13.8138Z" fill="current"/>
</svg>
