<svg width="29" height="28" viewBox="0 0 29 28" fill="none" xmlns="http://www.w3.org/2000/svg">
<path d="M19.4303 26.9456C20.5376 27.5882 21.4234 27.8067 22.1139 27.8067C22.8564 27.8067 23.3775 27.5496 23.7032 27.3183C24.3024 26.8813 25.2273 25.7632 24.6281 23.1929L23.7032 19.2474C23.612 18.8233 23.8074 18.1293 24.12 17.8208L27.3507 14.6207C28.9531 13.0271 28.8228 11.6648 28.6144 10.9965C28.4059 10.3282 27.7025 9.14584 25.4488 8.77314L21.2932 8.092C20.9023 8.02774 20.3422 7.61648 20.1598 7.26948L17.8671 2.74566C16.8249 0.676521 15.4571 0.368078 14.7406 0.368078C14.0241 0.368078 12.6562 0.676521 11.6141 2.74566L9.30832 7.28234C9.13896 7.62933 8.5788 8.04059 8.18799 8.10485L4.03237 8.78599C1.79172 9.1587 1.08826 10.3411 0.8668 11.0094C0.64534 11.6777 0.51507 13.04 2.13042 14.6336L5.36113 17.8208C5.67377 18.1293 5.88221 18.8361 5.77799 19.2474L4.85307 23.1929C4.2408 25.7632 5.17875 26.8813 5.77799 27.3183C6.39026 27.7553 7.74507 28.295 10.0509 26.9456L13.9589 24.6708C14.3498 24.4395 15.1314 24.4395 15.5352 24.6708L19.4303 26.9456Z" fill="#A86FE1"/>
</svg>
