<svg width="28" height="29" viewBox="0 0 28 29" fill="none" xmlns="http://www.w3.org/2000/svg">
<path d="M21.3775 28.295C20.6871 28.295 19.8012 28.0766 18.6939 27.434L14.7988 25.1592C14.395 24.9279 13.6134 24.9279 13.2226 25.1592L9.31448 27.434C7.0087 28.7834 5.65389 28.2436 5.04162 27.8067C4.44237 27.3697 3.50443 26.2516 4.1167 23.6812L5.04162 19.7357C5.14583 19.3245 4.9374 18.6176 4.62475 18.3092L1.39405 15.122C-0.221306 13.5283 -0.0910358 12.166 0.130424 11.4977C0.351883 10.8294 1.05534 9.64706 3.29599 9.27436L7.45162 8.59322C7.84243 8.52896 8.40259 8.1177 8.57194 7.7707L10.8777 3.23402C11.9199 1.16489 13.2877 0.856445 14.0042 0.856445C14.7207 0.856445 16.0885 1.16489 17.1307 3.23402L19.4234 7.75785C19.6058 8.10485 20.166 8.51611 20.5568 8.58037L24.7124 9.26151C26.9661 9.63421 27.6695 10.8166 27.878 11.4849C28.0864 12.1532 28.2167 13.5155 26.6144 15.1091L23.3837 18.3092C23.071 18.6176 22.8756 19.3116 22.9668 19.7357L23.8917 23.6812C24.4909 26.2516 23.566 27.3697 22.9668 27.8067C22.6411 28.038 22.12 28.295 21.3775 28.295ZM14.0042 23.0515C14.6425 23.0515 15.2808 23.2057 15.7889 23.5013L19.684 25.7761C20.8173 26.4444 21.5338 26.4444 21.8074 26.2516C22.0809 26.0588 22.2764 25.3777 21.9898 24.1182L21.0648 20.1727C20.8173 19.106 21.2212 17.7309 22.0028 16.9469L25.2335 13.7597C25.8718 13.1299 26.1584 12.513 26.0281 12.0889C25.8848 11.6648 25.2856 11.3178 24.3998 11.1764L20.2441 10.4953C19.2411 10.3282 18.1468 9.5314 17.6908 8.63177L15.3981 4.10795C14.9812 3.28543 14.4601 2.79706 14.0042 2.79706C13.5482 2.79706 13.0272 3.28543 12.6233 4.10795L10.3176 8.63177C9.86162 9.5314 8.76735 10.3282 7.76427 10.4953L3.62167 11.1764C2.73583 11.3178 2.13659 11.6648 1.99329 12.0889C1.84999 12.513 2.14961 13.1428 2.78794 13.7597L6.01864 16.9469C6.80026 17.718 7.2041 19.106 6.95659 20.1727L6.03167 24.1182C5.73205 25.3905 5.94048 26.0588 6.21405 26.2516C6.48762 26.4444 7.19107 26.4315 8.33745 25.7761L12.2325 23.5013C12.7275 23.2057 13.3659 23.0515 14.0042 23.0515Z" fill="#A86FE1"/>
</svg>
