<svg fill="none" height="24" viewBox="0 0 24 24" width="24" xmlns="http://www.w3.org/2000/svg"><g stroke="#292d32" stroke-width="1.5"><path d="m7.47998 18.35 3.10002 2.4c.4.4 1.3.6 1.9.6h3.8c1.2 0 2.5-.9 2.8-2.1l2.4-7.3c.5-1.4-.4-2.60003-1.9-2.60003h-4c-.6 0-1.1-.5-1-1.2l.5-3.2c.2-.9-.4-1.9-1.3-2.2-.8-.3-1.8.1-2.2.7l-4.10002 6.1" stroke-miterlimit="10"/><path d="m2.38 18.35v-9.79998c0-1.4.6-1.9 2-1.9h1c1.4 0 2 .5 2 1.9v9.79998c0 1.4-.6 1.9-2 1.9h-1c-1.4 0-2-.5-2-1.9z" stroke-linecap="round" stroke-linejoin="round"/></g></svg>