<svg width="20" height="20" viewBox="0 0 20 20" fill="none" xmlns="http://www.w3.org/2000/svg">
<path d="M10 20C4.49302 20 0 15.5163 0 10C0 4.48372 4.49302 0 10 0C15.507 0 20 4.48372 20 10C20 15.5163 15.5163 20 10 20ZM10 1.39535C5.25581 1.39535 1.39535 5.25581 1.39535 10C1.39535 14.7442 5.25581 18.6047 10 18.6047C14.7442 18.6047 18.6047 14.7442 18.6047 10C18.6047 5.25581 14.7442 1.39535 10 1.39535Z" fill="current"/>
<path d="M8.68791 14.6418C8.27861 14.6418 7.88794 14.5395 7.54375 14.3442C6.74375 13.8791 6.29724 12.9674 6.29724 11.7767V8.66045C6.29724 7.46974 6.73445 6.55812 7.53445 6.093C8.33442 5.62788 9.34838 5.7023 10.3809 6.29765L13.0786 7.85114C14.1112 8.4465 14.6786 9.28371 14.6786 10.2139C14.6786 11.1349 14.1112 11.9814 13.0786 12.5767L10.3809 14.1302C9.80419 14.4744 9.21814 14.6418 8.68791 14.6418ZM8.68791 7.18137C8.52047 7.18137 8.36233 7.21858 8.2414 7.293C7.88794 7.49765 7.69259 7.99067 7.69259 8.66045V11.7767C7.69259 12.4372 7.88794 12.9395 8.2414 13.1349C8.58559 13.3395 9.11582 13.2558 9.69256 12.9302L12.3902 11.3767C12.967 11.0418 13.2926 10.6232 13.2926 10.2232C13.2926 9.82324 12.9577 9.40464 12.3902 9.06975L9.69256 7.51626C9.32047 7.293 8.97628 7.18137 8.68791 7.18137Z" fill="current"/>
</svg>
